<svg width="118" height="118" viewBox="0 0 118 118" fill="none" xmlns="http://www.w3.org/2000/svg">
<g opacity="0.1">
<path d="M102.389 61.7949L91.1067 58.4097C89.594 57.951 87.9737 57.9927 86.4866 58.5285C84.9994 59.0643 83.7248 60.0656 82.8523 61.3837L74.607 73.7497H57.1154C55.6711 73.7477 54.2581 74.1704 53.0523 74.9654C51.8465 75.7605 50.9012 76.8926 50.3341 78.2208L46.5654 87.0137L57.5579 83.3483C58.0907 83.1731 58.6562 83.1207 59.2121 83.1951C59.768 83.2695 60.2999 83.4687 60.7678 83.7779L64.5309 86.2872L67.5879 84.248C68.3724 83.725 69.3275 83.5224 70.2568 83.6819C71.1862 83.8414 72.0191 84.3508 72.5844 85.1054L75.5934 89.1155L83.7059 78.2983C84.0616 77.8586 84.5111 77.5039 85.0215 77.2603C85.532 77.0167 86.0904 76.8903 86.6559 76.8903C87.2215 76.8903 87.7799 77.0167 88.2903 77.2603C88.8007 77.5039 89.2502 77.8586 89.6059 78.2983L92.5209 82.1849L99.0791 76.9376C99.7435 76.4088 100.57 76.1248 101.419 76.1332C102.268 76.1416 103.088 76.4419 103.742 76.9837L110.284 82.4356L107.518 67.516C107.274 66.182 106.666 64.9414 105.761 63.9317C104.855 62.922 103.688 62.1824 102.389 61.7949Z" fill="#00BB91"/>
<path d="M111.289 88.0737L101.382 79.8174L94.8239 85.0647C94.4381 85.3731 93.9944 85.6009 93.519 85.7346C93.0435 85.8682 92.5461 85.905 92.0562 85.8428C91.5662 85.7805 91.0938 85.6205 90.6669 85.3722C90.24 85.1239 89.8673 84.7923 89.571 84.3973L86.656 80.5088L78.5435 91.3261C78.2001 91.784 77.7547 92.1558 77.2426 92.4118C76.7306 92.6678 76.166 92.8011 75.5935 92.8011C75.0211 92.8011 74.4565 92.6678 73.9444 92.4118C73.4324 92.1558 72.987 91.784 72.6436 91.3261L69.6346 87.3122L66.5758 89.3514C65.9707 89.7572 65.2586 89.9738 64.5301 89.9738C63.8016 89.9738 63.0895 89.7572 62.4845 89.3514L58.7269 86.8402L44.6185 91.5455L35.1804 113.586C35.0602 113.866 35.0114 114.172 35.0385 114.476C35.0656 114.78 35.1677 115.072 35.3357 115.327C35.5036 115.582 35.7321 115.791 36.0007 115.935C36.2694 116.08 36.5697 116.156 36.8748 116.156H52.3254L57.1929 91.8183C57.2331 91.5742 57.322 91.3406 57.4543 91.1315C57.5867 90.9224 57.7598 90.742 57.9633 90.6012C58.1668 90.4605 58.3965 90.3621 58.6389 90.312C58.8812 90.2618 59.1312 90.261 59.3738 90.3096C59.6165 90.3581 59.8469 90.455 60.0513 90.5944C60.2557 90.7339 60.43 90.9131 60.5637 91.1213C60.6974 91.3296 60.7878 91.5626 60.8296 91.8065C60.8713 92.0504 60.8635 92.3003 60.8067 92.5411L56.0867 116.156H76.8842L75.612 103.434C75.5631 102.947 75.7095 102.461 76.0189 102.083C76.3284 101.704 76.7756 101.464 77.2621 101.415C77.7487 101.366 78.2347 101.513 78.6134 101.822C78.992 102.131 79.2321 102.579 79.281 103.065L80.5901 116.156H100.08L95.9209 98.1332C95.8664 97.8971 95.859 97.6526 95.899 97.4137C95.939 97.1747 96.0257 96.946 96.1541 96.7406C96.2825 96.5351 96.4501 96.357 96.6474 96.2163C96.8446 96.0756 97.0676 95.9752 97.3037 95.9207C97.5398 95.8662 97.7843 95.8588 98.0232 95.8988C98.2622 95.9388 98.4909 96.0255 98.6963 96.1539C98.9018 96.2823 99.0799 96.4499 99.2206 96.6471C99.3613 96.8444 99.4617 97.0674 99.5162 97.3035L103.866 116.156H114.312C114.583 116.156 114.85 116.096 115.095 115.981C115.34 115.866 115.556 115.699 115.729 115.491C115.902 115.283 116.027 115.04 116.096 114.778C116.164 114.516 116.174 114.243 116.125 113.977L111.331 88.0977C111.32 88.0866 111.301 88.0848 111.289 88.0737Z" fill="#00BB91"/>
</g>
<path d="M92.1875 90.3438H82.9688V79.2812C82.9688 77.8143 82.386 76.4074 81.3487 75.3701C80.3114 74.3328 78.9045 73.75 77.4375 73.75H68.2188V54.9733C69.2935 54.5933 70.2246 53.8905 70.8847 52.9612C71.5447 52.0318 71.9015 50.9212 71.9062 49.7812V40.5625C71.9001 39.933 71.7854 39.3092 71.567 38.7188H82.9688C84.4357 38.7188 85.8426 38.136 86.8799 37.0987C87.9172 36.0614 88.5 34.6545 88.5 33.1875V23.9688C88.5 22.5018 87.9172 21.0949 86.8799 20.0576C85.8426 19.0203 84.4357 18.4375 82.9688 18.4375H60.5045C60.7229 17.847 60.8376 17.2233 60.8438 16.5938V7.375C60.8438 5.90802 60.261 4.50113 59.2237 3.46382C58.1864 2.4265 56.7795 1.84375 55.3125 1.84375H40.5625C39.0955 1.84375 37.6886 2.4265 36.6513 3.46382C35.614 4.50113 35.0312 5.90802 35.0312 7.375V16.5938C35.0374 17.2233 35.1521 17.847 35.3705 18.4375H12.9062C11.4393 18.4375 10.0324 19.0203 8.99507 20.0576C7.95776 21.0949 7.375 22.5018 7.375 23.9688V33.1875C7.375 34.6545 7.95776 36.0614 8.99507 37.0987C10.0324 38.136 11.4393 38.7188 12.9062 38.7188H24.308C24.0896 39.3092 23.9749 39.933 23.9688 40.5625V49.7812C23.9735 50.9212 24.3303 52.0318 24.9903 52.9612C25.6504 53.8905 26.5815 54.5933 27.6562 54.9733V73.75H18.4375C16.9705 73.75 15.5636 74.3328 14.5263 75.3701C13.489 76.4074 12.9062 77.8143 12.9062 79.2812V90.3438H3.6875C3.19851 90.3438 2.72954 90.538 2.38377 90.8838C2.038 91.2295 1.84375 91.6985 1.84375 92.1875C1.84375 92.6765 2.038 93.1455 2.38377 93.4912C2.72954 93.837 3.19851 94.0312 3.6875 94.0312H92.1875C92.6765 94.0312 93.1455 93.837 93.4912 93.4912C93.837 93.1455 94.0312 92.6765 94.0312 92.1875C94.0312 91.6985 93.837 91.2295 93.4912 90.8838C93.1455 90.538 92.6765 90.3438 92.1875 90.3438ZM53.4688 73.75V55.3125H64.5312V73.75H53.4688ZM46.0938 73.75V55.3125H49.7812V73.75H46.0938ZM84.8125 23.9688V33.1875C84.8125 33.6765 84.6182 34.1455 84.2725 34.4912C83.9267 34.837 83.4577 35.0312 82.9688 35.0312H51.625C51.136 35.0312 50.667 34.837 50.3213 34.4912C49.9755 34.1455 49.7812 33.6765 49.7812 33.1875V23.9688C49.7812 23.4798 49.9755 23.0108 50.3213 22.665C50.667 22.3193 51.136 22.125 51.625 22.125H82.9688C83.4577 22.125 83.9267 22.3193 84.2725 22.665C84.6182 23.0108 84.8125 23.4798 84.8125 23.9688ZM38.7188 16.5938V7.375C38.7188 6.88601 38.913 6.41704 39.2588 6.07127C39.6045 5.7255 40.0735 5.53125 40.5625 5.53125H55.3125C55.8015 5.53125 56.2705 5.7255 56.6162 6.07127C56.962 6.41704 57.1562 6.88601 57.1562 7.375V16.5938C57.1562 17.0827 56.962 17.5517 56.6162 17.8975C56.2705 18.2432 55.8015 18.4375 55.3125 18.4375H40.5625C40.0735 18.4375 39.6045 18.2432 39.2588 17.8975C38.913 17.5517 38.7188 17.0827 38.7188 16.5938ZM11.0625 33.1875V23.9688C11.0625 23.4798 11.2568 23.0108 11.6025 22.665C11.9483 22.3193 12.4173 22.125 12.9062 22.125H44.25C44.739 22.125 45.208 22.3193 45.5537 22.665C45.8995 23.0108 46.0938 23.4798 46.0938 23.9688V33.1875C46.0938 33.6765 45.8995 34.1455 45.5537 34.4912C45.208 34.837 44.739 35.0312 44.25 35.0312H12.9062C12.4173 35.0312 11.9483 34.837 11.6025 34.4912C11.2568 34.1455 11.0625 33.6765 11.0625 33.1875ZM66.375 38.7188C66.864 38.7188 67.333 38.913 67.6787 39.2588C68.0245 39.6045 68.2188 40.0735 68.2188 40.5625V49.7812C68.2188 50.2702 68.0245 50.7392 67.6787 51.085C67.333 51.4307 66.864 51.625 66.375 51.625H29.5C29.011 51.625 28.542 51.4307 28.1963 51.085C27.8505 50.7392 27.6562 50.2702 27.6562 49.7812V40.5625C27.6562 40.0735 27.8505 39.6045 28.1963 39.2588C28.542 38.913 29.011 38.7188 29.5 38.7188H66.375ZM31.3438 55.3125H42.4062V73.75H31.3438V55.3125ZM16.5938 79.2812C16.5938 78.7923 16.788 78.3233 17.1338 77.9775C17.4795 77.6318 17.9485 77.4375 18.4375 77.4375H77.4375C77.9265 77.4375 78.3955 77.6318 78.7412 77.9775C79.087 78.3233 79.2812 78.7923 79.2812 79.2812V90.3438H16.5938V79.2812Z" fill="#00BB91"/>
</svg>
