<svg width="118" height="118" viewBox="0 0 118 118" fill="none" xmlns="http://www.w3.org/2000/svg">
<path opacity="0.1" d="M46.0938 110.625V108.781H40.5625C40.0735 108.781 39.6045 108.587 39.2588 108.241C38.913 107.895 38.7188 107.426 38.7188 106.938C38.7188 106.449 38.913 105.98 39.2588 105.634C39.6045 105.288 40.0735 105.094 40.5625 105.094H46.0938V103.25C46.0938 101.783 46.6765 100.376 47.7138 99.3388C48.7511 98.3015 50.158 97.7188 51.625 97.7188H103.25C104.717 97.7188 106.124 98.3015 107.161 99.3388C108.198 100.376 108.781 101.783 108.781 103.25V105.094H114.312C114.801 105.094 115.27 105.288 115.616 105.634C115.962 105.98 116.156 106.449 116.156 106.938C116.156 107.426 115.962 107.895 115.616 108.241C115.27 108.587 114.801 108.781 114.312 108.781H108.781V110.625C108.781 112.092 108.198 113.499 107.161 114.536C106.124 115.573 104.717 116.156 103.25 116.156H51.625C50.158 116.156 48.7511 115.573 47.7138 114.536C46.6765 113.499 46.0938 112.092 46.0938 110.625ZM103.25 38.7188H51.625C50.158 38.7188 48.7511 39.3015 47.7138 40.3388C46.6765 41.3761 46.0938 42.783 46.0938 44.25V46.0938H40.5625C40.0735 46.0938 39.6045 46.288 39.2588 46.6338C38.913 46.9795 38.7188 47.4485 38.7188 47.9375C38.7188 48.4265 38.913 48.8955 39.2588 49.2412C39.6045 49.587 40.0735 49.7812 40.5625 49.7812H46.0938V51.625C46.0938 53.092 46.6765 54.4989 47.7138 55.5362C48.7511 56.5735 50.158 57.1562 51.625 57.1562H103.25C104.717 57.1562 106.124 56.5735 107.161 55.5362C108.198 54.4989 108.781 53.092 108.781 51.625V49.7812H114.312C114.801 49.7812 115.27 49.587 115.616 49.2412C115.962 48.8955 116.156 48.4265 116.156 47.9375C116.156 47.4485 115.962 46.9795 115.616 46.6338C115.27 46.288 114.801 46.0938 114.312 46.0938H108.781V44.25C108.781 42.783 108.198 41.3761 107.161 40.3388C106.124 39.3015 104.717 38.7188 103.25 38.7188ZM53.4688 94.0312V60.8438H101.406V94.0312H53.4688ZM62.6875 71.9062H92.1875C92.6765 71.9062 93.1455 71.712 93.4912 71.3662C93.837 71.0205 94.0312 70.5515 94.0312 70.0625C94.0312 69.5735 93.837 69.1045 93.4912 68.7588C93.1455 68.413 92.6765 68.2188 92.1875 68.2188H62.6875C62.1985 68.2188 61.7295 68.413 61.3838 68.7588C61.038 69.1045 60.8438 69.5735 60.8438 70.0625C60.8438 70.5515 61.038 71.0205 61.3838 71.3662C61.7295 71.712 62.1985 71.9062 62.6875 71.9062ZM62.6875 79.2812H92.1875C92.6765 79.2812 93.1455 79.087 93.4912 78.7412C93.837 78.3955 94.0312 77.9265 94.0312 77.4375C94.0312 76.9485 93.837 76.4795 93.4912 76.1338C93.1455 75.788 92.6765 75.5938 92.1875 75.5938H62.6875C62.1985 75.5938 61.7295 75.788 61.3838 76.1338C61.038 76.4795 60.8438 76.9485 60.8438 77.4375C60.8438 77.9265 61.038 78.3955 61.3838 78.7412C61.7295 79.087 62.1985 79.2812 62.6875 79.2812ZM62.6875 86.6562H92.1875C92.6765 86.6562 93.1455 86.462 93.4912 86.1162C93.837 85.7705 94.0312 85.3015 94.0312 84.8125C94.0312 84.3235 93.837 83.8545 93.4912 83.5088C93.1455 83.163 92.6765 82.9688 92.1875 82.9688H62.6875C62.1985 82.9688 61.7295 83.163 61.3838 83.5088C61.038 83.8545 60.8438 84.3235 60.8438 84.8125C60.8438 85.3015 61.038 85.7705 61.3838 86.1162C61.7295 86.462 62.1985 86.6562 62.6875 86.6562Z" fill="#00BB91"/>
<path d="M42.4062 60.8438C42.8952 60.8438 43.3642 60.6495 43.71 60.3037C44.0557 59.958 44.25 59.489 44.25 59V49.7812C44.25 47.8253 43.473 45.9494 42.0899 44.5663C40.7068 43.1833 38.831 42.4062 36.875 42.4062C34.919 42.4062 33.0432 43.1833 31.6601 44.5663C30.277 45.9494 29.5 47.8253 29.5 49.7812V59C29.5 59.489 29.6943 59.958 30.04 60.3037C30.3858 60.6495 30.8548 60.8438 31.3438 60.8438H42.4062ZM33.1875 49.7812C33.1875 48.8033 33.576 47.8653 34.2675 47.1738C34.9591 46.4823 35.897 46.0938 36.875 46.0938C37.853 46.0938 38.7909 46.4823 39.4825 47.1738C40.174 47.8653 40.5625 48.8033 40.5625 49.7812V57.1562H33.1875V49.7812ZM53.4688 60.8438H64.5312C65.0202 60.8438 65.4892 60.6495 65.835 60.3037C66.1807 59.958 66.375 59.489 66.375 59V49.7812C66.375 47.8253 65.598 45.9494 64.2149 44.5663C62.8318 43.1833 60.956 42.4062 59 42.4062C57.044 42.4062 55.1682 43.1833 53.7851 44.5663C52.402 45.9494 51.625 47.8253 51.625 49.7812V59C51.625 59.489 51.8193 59.958 52.165 60.3037C52.5108 60.6495 52.9798 60.8438 53.4688 60.8438ZM55.3125 49.7812C55.3125 48.8033 55.701 47.8653 56.3925 47.1738C57.0841 46.4823 58.022 46.0938 59 46.0938C59.978 46.0938 60.9159 46.4823 61.6075 47.1738C62.299 47.8653 62.6875 48.8033 62.6875 49.7812V57.1562H55.3125V49.7812ZM5.53125 90.3438H3.6875C3.19851 90.3438 2.72954 90.538 2.38377 90.8838C2.038 91.2295 1.84375 91.6985 1.84375 92.1875C1.84375 92.6765 2.038 93.1455 2.38377 93.4912C2.72954 93.837 3.19851 94.0312 3.6875 94.0312H92.1875C92.6765 94.0312 93.1455 93.837 93.4912 93.4912C93.837 93.1455 94.0312 92.6765 94.0312 92.1875C94.0312 91.6985 93.837 91.2295 93.4912 90.8838C93.1455 90.538 92.6765 90.3438 92.1875 90.3438H90.3438C90.2147 89.7906 91.2656 84.96 86.6562 83.3006V60.8438H88.5C89.967 60.8438 91.3739 60.261 92.4112 59.2237C93.4485 58.1864 94.0312 56.7795 94.0312 55.3125V42.4062C94.0312 40.9393 93.4485 39.5324 92.4112 38.4951C91.3739 37.4578 89.967 36.875 88.5 36.875H84.8125C83.3455 36.875 81.9386 37.4578 80.9013 38.4951C79.864 39.5324 79.2812 40.9393 79.2812 42.4062H75.5938V38.3869C76.6697 38.0065 77.6016 37.3026 78.2618 36.3718C78.9219 35.4409 79.278 34.3287 79.2812 33.1875V31.3438H81.125C82.592 31.3438 83.9989 30.761 85.0362 29.7237C86.0735 28.6864 86.6562 27.2795 86.6562 25.8125V7.375C86.6562 5.90802 86.0735 4.50113 85.0362 3.46382C83.9989 2.4265 82.592 1.84375 81.125 1.84375H73.75C72.283 1.84375 70.8761 2.4265 69.8388 3.46382C68.8015 4.50113 68.2188 5.90802 68.2188 7.375C68.0897 7.94656 68.9009 11.0625 66.375 11.0625H59C56.5662 11.0625 57.2669 7.83594 57.1562 7.375C57.1562 5.90802 56.5735 4.50113 55.5362 3.46382C54.4989 2.4265 53.092 1.84375 51.625 1.84375H44.25C42.783 1.84375 41.3761 2.4265 40.3388 3.46382C39.3015 4.50113 38.7188 5.90802 38.7188 7.375C38.5897 7.94656 39.4009 11.0625 36.875 11.0625H29.5C27.0662 11.0625 27.7669 7.83594 27.6562 7.375C27.6562 5.90802 27.0735 4.50113 26.0362 3.46382C24.9989 2.4265 23.592 1.84375 22.125 1.84375H14.75C13.283 1.84375 11.8761 2.4265 10.8388 3.46382C9.80151 4.50113 9.21875 5.90802 9.21875 7.375V25.8125C9.21875 27.2795 9.80151 28.6864 10.8388 29.7237C11.8761 30.761 13.283 31.3438 14.75 31.3438H16.5938V33.1875C16.597 34.3287 16.9531 35.4409 17.6132 36.3718C18.2734 37.3026 19.2053 38.0065 20.2812 38.3869V42.4062H16.5938C16.5938 40.9393 16.011 39.5324 14.9737 38.4951C13.9364 37.4578 12.5295 36.875 11.0625 36.875H7.375C5.90802 36.875 4.50113 37.4578 3.46382 38.4951C2.4265 39.5324 1.84375 40.9393 1.84375 42.4062V55.3125C1.84375 56.7795 2.4265 58.1864 3.46382 59.2237C4.50113 60.261 5.90802 60.8438 7.375 60.8438H9.21875V83.3006C4.5725 84.96 5.67875 89.7538 5.53125 90.3438ZM9.21875 90.3438C9.34781 89.7722 8.53656 86.6562 11.0625 86.6562H84.8125C87.2462 86.6562 86.5456 89.8828 86.6562 90.3438H9.21875ZM23.9688 38.7188H71.9062V82.9688H57.1562V77.4375C57.1562 74.9925 56.185 72.6477 54.4561 70.9189C52.7273 69.19 50.3825 68.2188 47.9375 68.2188C45.4925 68.2188 43.1477 69.19 41.4189 70.9189C39.69 72.6477 38.7188 74.9925 38.7188 77.4375V82.9688H23.9688V38.7188ZM42.4062 82.9688V77.4375C42.4062 75.9705 42.989 74.5636 44.0263 73.5263C45.0636 72.489 46.4705 71.9062 47.9375 71.9062C49.4045 71.9062 50.8114 72.489 51.8487 73.5263C52.886 74.5636 53.4688 75.9705 53.4688 77.4375V82.9688H42.4062ZM82.9688 82.9688H75.5938V60.8438H82.9688V82.9688ZM79.2812 46.0938C80.2592 46.0938 81.1972 45.7052 81.8887 45.0137C82.5802 44.3222 82.9688 43.3842 82.9688 42.4062C82.9688 41.9173 83.163 41.4483 83.5088 41.1025C83.8545 40.7568 84.3235 40.5625 84.8125 40.5625H88.5C88.989 40.5625 89.458 40.7568 89.8037 41.1025C90.1495 41.4483 90.3438 41.9173 90.3438 42.4062V55.3125C90.3438 55.8015 90.1495 56.2705 89.8037 56.6162C89.458 56.962 88.989 57.1562 88.5 57.1562H75.5938V46.0938H79.2812ZM12.9062 25.8125V7.375C12.9062 6.88601 13.1005 6.41704 13.4463 6.07127C13.792 5.7255 14.261 5.53125 14.75 5.53125H22.125C24.5588 5.53125 23.8581 8.75781 23.9688 9.21875C23.9688 10.6857 24.5515 12.0926 25.5888 13.1299C26.6261 14.1672 28.033 14.75 29.5 14.75H36.875C38.342 14.75 39.7489 14.1672 40.7862 13.1299C41.8235 12.0926 42.4062 10.6857 42.4062 9.21875C42.5353 8.64719 41.7241 5.53125 44.25 5.53125H51.625C54.0588 5.53125 53.3581 8.75781 53.4688 9.21875C53.4688 10.6857 54.0515 12.0926 55.0888 13.1299C56.1261 14.1672 57.533 14.75 59 14.75H66.375C67.842 14.75 69.2489 14.1672 70.2862 13.1299C71.3235 12.0926 71.9062 10.6857 71.9062 9.21875C72.0353 8.64719 71.2241 5.53125 73.75 5.53125H81.125C81.614 5.53125 82.083 5.7255 82.4287 6.07127C82.7745 6.41704 82.9688 6.88601 82.9688 7.375V25.8125C82.9688 26.3015 82.7745 26.7705 82.4287 27.1162C82.083 27.462 81.614 27.6562 81.125 27.6562H14.75C14.261 27.6562 13.792 27.462 13.4463 27.1162C13.1005 26.7705 12.9062 26.3015 12.9062 25.8125ZM75.5938 31.3438C75.4647 31.9153 76.2759 35.0312 73.75 35.0312H22.125C19.6912 35.0312 20.3919 31.8047 20.2812 31.3438H75.5938ZM5.53125 55.3125V42.4062C5.53125 41.9173 5.7255 41.4483 6.07127 41.1025C6.41704 40.7568 6.88601 40.5625 7.375 40.5625H11.0625C11.5515 40.5625 12.0205 40.7568 12.3662 41.1025C12.712 41.4483 12.9062 41.9173 12.9062 42.4062C12.9062 43.3842 13.2948 44.3222 13.9863 45.0137C14.6778 45.7052 15.6158 46.0938 16.5938 46.0938H20.2812V57.1562H7.375C6.88601 57.1562 6.41704 56.962 6.07127 56.6162C5.7255 56.2705 5.53125 55.8015 5.53125 55.3125ZM20.2812 60.8438V82.9688H12.9062V60.8438H20.2812Z" fill="#00BB91"/>
</svg>
