<svg width="118" height="118" viewBox="0 0 118 118" fill="none" xmlns="http://www.w3.org/2000/svg">
<path opacity="0.1" d="M70.0628 98.8007C73.1603 95.8746 90.344 89.7276 90.344 70.0621V63.4007C84.4094 60.5113 79.6146 55.7159 76.7261 49.7809H63.3995C60.5117 55.7165 55.7168 60.5121 49.7815 63.4007V70.0621C49.7815 89.593 67.3451 96.2268 70.0628 98.8007ZM73.5917 87.5778C76.4779 85.6578 78.8445 83.0539 80.4806 79.9978C82.1167 76.9418 82.9715 73.5286 82.969 70.0621C82.969 69.5731 83.1633 69.1042 83.5091 68.7584C83.8548 68.4126 84.3238 68.2184 84.8128 68.2184C85.3018 68.2184 85.7707 68.4126 86.1165 68.7584C86.4623 69.1042 86.6565 69.5731 86.6565 70.0621C86.6613 74.1371 85.6575 78.15 83.7346 81.7428C81.8118 85.3356 79.0297 88.3967 75.6364 90.6531C75.2286 90.9243 74.7298 91.0223 74.2497 90.9257C73.7696 90.829 73.3475 90.5456 73.0764 90.1378C72.8052 89.73 72.7072 89.2311 72.8039 88.751C72.9005 88.2709 73.1839 87.8489 73.5917 87.5778ZM66.9948 114.482C67.9024 115.09 68.9703 115.414 70.0628 115.414C71.1553 115.414 72.2231 115.09 73.1308 114.482C77.8674 110.044 105.094 100.464 105.094 70.0621V56.8129C105.108 55.531 104.669 54.2854 103.856 53.2947C103.042 52.304 101.905 51.6318 100.645 51.396C97.6769 50.8602 94.9437 49.429 92.8126 47.2947C90.6815 45.1603 89.2546 42.4249 88.7234 39.4559C88.4871 38.1984 87.8142 37.0648 86.8234 36.2551C85.8326 35.4455 84.5876 35.0119 83.3083 35.0309H56.8173C55.5379 35.0126 54.2931 35.4464 53.3021 36.2558C52.3112 37.0653 51.6377 38.1985 51.4003 39.4559C50.8719 42.4262 49.4462 45.1632 47.3151 47.2987C45.1839 49.4341 42.4497 50.8653 39.4805 51.3997C38.221 51.6353 37.0848 52.3071 36.2712 53.297C35.4577 54.2869 35.0188 55.5317 35.0315 56.8129V70.0621C35.0315 100.084 62.083 109.887 66.9948 114.482ZM46.094 62.2225C46.0942 61.8639 46.199 61.5132 46.3954 61.2132C46.5919 60.9132 46.8716 60.6771 47.2003 60.5336C53.1654 57.9272 57.9269 53.1651 60.5324 47.1996C60.6759 46.871 60.912 46.5913 61.212 46.3948C61.512 46.1983 61.8627 46.0936 62.2213 46.0934H77.9042C78.2628 46.0936 78.6136 46.1983 78.9136 46.3948C79.2135 46.5913 79.4497 46.871 79.5931 47.1996C82.1993 53.1647 86.9605 57.9266 92.9253 60.5336C93.2539 60.6771 93.5336 60.9132 93.7301 61.2132C93.9266 61.5132 94.0313 61.8639 94.0315 62.2225V70.0621C94.0315 92.2646 74.4749 99.3427 71.0861 102.551C70.7831 102.753 70.427 102.861 70.0628 102.861C69.6986 102.861 69.3425 102.753 69.0395 102.551C65.6249 99.3169 46.094 92.2443 46.094 70.0621V62.2225Z" fill="#00BB91"/>
<path d="M88.4998 1.84378H63.0561C61.5049 1.83995 59.9782 2.22946 58.6184 2.97591C57.2587 3.72235 56.1104 4.80135 55.281 6.11206L19.9676 61.6089L16.9752 58.6184C11.5896 53.2328 3.45498 61.384 8.83689 66.7567L12.3769 70.2967L2.86498 84.5655C2.0946 85.7378 1.75204 87.14 1.89506 88.5355C2.03808 89.931 2.65792 91.2345 3.65008 92.2262C4.64225 93.218 5.94603 93.8372 7.34161 93.9797C8.73719 94.1221 10.1392 93.7789 11.3112 93.008L25.5781 83.4979L29.1181 87.0379C34.4189 92.3387 42.6716 84.3129 37.2565 78.8996L34.2733 75.9164L89.7701 40.6031C91.0811 39.7721 92.1596 38.6221 92.9048 37.2606C93.6501 35.8992 94.0376 34.3708 94.0311 32.8188V7.37503C94.0311 5.90805 93.4483 4.50115 92.411 3.46384C91.3737 2.42653 89.9668 1.84378 88.4998 1.84378ZM9.26649 89.94C8.80521 90.2548 8.24849 90.3987 7.69244 90.3468C7.13639 90.2948 6.61593 90.0504 6.22092 89.6556C5.82592 89.2608 5.58117 88.7405 5.52893 88.1845C5.4767 87.6284 5.62026 87.0716 5.93483 86.6102L15.0356 72.9572L22.9176 80.8393L9.26649 89.94ZM34.6494 81.5067C35.0177 81.8984 35.2191 82.418 35.2108 82.9556C35.2026 83.4932 34.9854 84.0065 34.6052 84.3867C34.225 84.7669 33.7117 84.9841 33.1742 84.9923C32.6366 85.0006 32.1169 84.7992 31.7252 84.4309L11.444 64.1496C11.0756 63.758 10.8743 63.2383 10.8825 62.7007C10.8908 62.1631 11.108 61.6498 11.4882 61.2696C11.8683 60.8895 12.3816 60.6722 12.9192 60.664C13.4568 60.6557 13.9765 60.8571 14.3681 61.2254L34.6494 81.5067ZM90.3436 32.8188C90.346 33.7499 90.1122 34.6664 89.664 35.4826C89.2158 36.2987 88.5678 36.9878 87.7807 37.4853L31.6017 73.2449L28.4194 70.0625L60.3033 38.1786C60.6392 37.8308 60.825 37.3651 60.8208 36.8817C60.8166 36.3982 60.6227 35.9358 60.2809 35.594C59.939 35.2521 59.4766 35.0582 58.9932 35.054C58.5097 35.0498 58.044 35.2356 57.6963 35.5715L25.8123 67.4555L22.63 64.2732L58.3821 8.09225C58.8807 7.3046 59.5711 6.65643 60.3886 6.2085C61.2061 5.76057 62.1239 5.52755 63.0561 5.53128H88.4998C88.9888 5.53128 89.4578 5.72553 89.8035 6.0713C90.1493 6.41707 90.3436 6.88603 90.3436 7.37503V32.8188Z" fill="#00BB91"/>
</svg>
