<svg width="118" height="118" viewBox="0 0 118 118" fill="none" xmlns="http://www.w3.org/2000/svg">
<g opacity="0.1">
<path d="M46.0938 84.8125C46.0884 79.9242 44.1441 75.2377 40.6876 71.7811C37.2311 68.3246 32.5445 66.3804 27.6562 66.375H23.9688V77.4375H35.0312C36.9872 77.4375 38.8631 78.2145 40.2462 79.5976C41.6292 80.9807 42.4062 82.8565 42.4062 84.8125C42.4062 86.7685 41.6292 88.6443 40.2462 90.0274C38.8631 91.4105 36.9872 92.1875 35.0312 92.1875H23.9688V103.25H27.6562C32.5445 103.245 37.2311 101.3 40.6876 97.8439C44.1441 94.3873 46.0884 89.7008 46.0938 84.8125Z" fill="#00BB91"/>
<path d="M94.0312 84.8125C94.0366 89.7008 95.9809 94.3873 99.4374 97.8439C102.894 101.3 107.58 103.245 112.469 103.25H116.156V92.1875H105.094C103.138 92.1875 101.262 91.4105 99.8788 90.0274C98.4958 88.6443 97.7188 86.7685 97.7188 84.8125C97.7188 82.8565 98.4958 80.9807 99.8788 79.5976C101.262 78.2145 103.138 77.4375 105.094 77.4375H116.156V66.375H112.469C107.58 66.3804 102.894 68.3246 99.4374 71.7811C95.9809 75.2377 94.0366 79.9242 94.0312 84.8125Z" fill="#00BB91"/>
<path d="M101.406 84.8125C101.406 85.7905 101.795 86.7284 102.486 87.42C103.178 88.1115 104.116 88.5 105.094 88.5H116.156V81.125H105.094C104.116 81.125 103.178 81.5135 102.486 82.205C101.795 82.8966 101.406 83.8345 101.406 84.8125Z" fill="#00BB91"/>
<path d="M38.7188 84.8125C38.7188 83.8345 38.3302 82.8966 37.6387 82.205C36.9472 81.5135 36.0092 81.125 35.0312 81.125H23.9688V88.5H35.0312C36.0092 88.5 36.9472 88.1115 37.6387 87.42C38.3302 86.7284 38.7188 85.7905 38.7188 84.8125Z" fill="#00BB91"/>
<path d="M112.469 106.938C106.601 106.938 100.973 104.606 96.824 100.457C92.6748 96.308 90.3438 90.6804 90.3438 84.8125C90.3438 78.9446 92.6748 73.317 96.824 69.1678C100.973 65.0185 106.601 62.6875 112.469 62.6875H116.156V55.3125C116.156 54.8235 115.962 54.3545 115.616 54.0088C115.27 53.663 114.801 53.4688 114.312 53.4688H71.9062V72.0538C74.9758 72.4946 77.7836 74.0273 79.8146 76.3708C81.8455 78.7143 82.9635 81.7114 82.9635 84.8125C82.9635 87.9136 81.8455 90.9107 79.8146 93.2542C77.7836 95.5977 74.9758 97.1304 71.9062 97.5712V116.156H114.312C114.801 116.156 115.27 115.962 115.616 115.616C115.962 115.27 116.156 114.801 116.156 114.312V106.938H112.469Z" fill="#00BB91"/>
<path d="M70.0625 94.0312C75.1539 94.0312 79.2812 89.9039 79.2812 84.8125C79.2812 79.7211 75.1539 75.5938 70.0625 75.5938C64.9711 75.5938 60.8438 79.7211 60.8438 84.8125C60.8438 89.9039 64.9711 94.0312 70.0625 94.0312Z" fill="#00BB91"/>
<path d="M68.2188 97.5712C65.1492 97.1304 62.3414 95.5977 60.3104 93.2542C58.2795 90.9107 57.1614 87.9136 57.1614 84.8125C57.1614 81.7114 58.2795 78.7143 60.3104 76.3708C62.3414 74.0273 65.1492 72.4946 68.2188 72.0538V53.4688H25.8125C25.3235 53.4688 24.8545 53.663 24.5088 54.0088C24.163 54.3545 23.9688 54.8235 23.9688 55.3125V62.6875H27.6562C33.5242 62.6875 39.1517 65.0185 43.301 69.1678C47.4502 73.317 49.7812 78.9446 49.7812 84.8125C49.7812 90.6804 47.4502 96.308 43.301 100.457C39.1517 104.606 33.5242 106.938 27.6562 106.938H23.9688V114.312C23.9688 114.801 24.163 115.27 24.5088 115.616C24.8545 115.962 25.3235 116.156 25.8125 116.156H68.2188V97.5712Z" fill="#00BB91"/>
</g>
<path d="M42.4063 1.84375C34.3838 1.84375 26.5414 4.2227 19.871 8.67976C13.2005 13.1368 8.00149 19.4718 4.93141 26.8837C1.86133 34.2955 1.05805 42.4512 2.62317 50.3196C4.18828 58.188 8.05148 65.4155 13.7243 71.0883C19.397 76.761 26.6246 80.6242 34.4929 82.1893C42.3613 83.7545 50.517 82.9512 57.9289 79.8811C65.3407 76.811 71.6757 71.612 76.1328 64.9416C80.5898 58.2711 82.9688 50.4288 82.9688 42.4062C82.9566 31.6522 78.6791 21.342 71.0748 13.7377C63.4705 6.1334 53.1604 1.85595 42.4063 1.84375ZM79.1873 40.5625H44.25V31.2811C49.2112 30.9916 54.0348 29.539 58.3308 27.0407C62.6269 24.5425 66.2749 21.0686 68.9802 16.8998C75.1308 23.2944 78.7568 31.7005 79.1873 40.5625ZM44.25 5.62528C52.3419 6.0168 60.0767 9.07544 66.2478 14.3241C63.9061 18.1308 60.6873 21.3218 56.8604 23.6303C53.0334 25.9387 48.7095 27.2977 44.25 27.5936V5.62528ZM40.5625 27.5936C36.1025 27.2971 31.7783 25.9373 27.9513 23.6278C24.1243 21.3184 20.9058 18.1263 18.5647 14.3186C24.7366 9.07191 32.4713 6.01524 40.5625 5.62528V27.5936ZM15.8323 16.9072C18.5384 21.0746 22.1869 24.547 26.4829 27.044C30.7789 29.541 35.602 30.9924 40.5625 31.2811V40.5625H5.6253C6.05754 31.7031 9.68341 23.2999 15.8323 16.9072ZM5.6253 44.25H40.5625V53.5314C35.6013 53.8209 30.7778 55.2735 26.4817 57.7718C22.1857 60.27 18.5376 63.7439 15.8323 67.9127C9.68178 61.5181 6.05578 53.112 5.6253 44.25ZM40.5625 79.1872C32.4707 78.7957 24.7359 75.7371 18.5647 70.4884C20.9064 66.6817 24.1252 63.4907 27.9522 61.1822C31.7791 58.8738 36.103 57.5148 40.5625 57.2189V79.1872ZM44.25 57.2189C48.71 57.5154 53.0343 58.8752 56.8613 61.1847C60.6882 63.4941 63.9068 66.6862 66.2478 70.4939C60.0759 75.7406 52.3412 78.7973 44.25 79.1872V57.2189ZM68.9802 67.9127C66.2749 63.7439 62.6269 60.27 58.3308 57.7718C54.0348 55.2735 49.2112 53.8209 44.25 53.5314V44.25H79.1873C78.755 53.1094 75.1291 61.5126 68.9802 67.9053V67.9127Z" fill="#00BB91"/>
</svg>
