<svg width="28" height="28" viewBox="0 0 28 28" fill="none" xmlns="http://www.w3.org/2000/svg">
<path d="M23.1924 4.80758C20.737 2.3522 17.4724 1 14 1C10.5276 1 7.263 2.3522 4.80758 4.80758C2.3522 7.263 1 10.5276 1 14C1 17.4724 2.3522 20.737 4.80758 23.1924C7.263 25.6478 10.5276 27 14 27C17.4724 27 20.737 25.6478 23.1924 23.1924C25.6478 20.737 27 17.4724 27 14C27 10.5276 25.6478 7.263 23.1924 4.80758ZM14 25.9642C7.40296 25.9642 2.03584 20.5971 2.03584 14C2.03584 7.40291 7.40296 2.03584 14 2.03584C20.597 2.03584 25.9642 7.40296 25.9642 14C25.9642 20.597 20.597 25.9642 14 25.9642Z" fill="#00BB91"/>
<path d="M16.5556 9C14.5949 9 13 10.5949 13 12.5556C13 14.3801 15.8526 17.6116 16.1777 17.9742C16.2742 18.0809 16.4113 18.1429 16.5556 18.1429C16.6998 18.1429 16.837 18.0809 16.9335 17.9742C17.2585 17.6116 20.1111 14.3801 20.1111 12.5556C20.1111 10.5949 18.5162 9 16.5556 9ZM16.5556 16.8598C15.4462 15.5443 14.0159 13.5247 14.0159 12.5556C14.0159 11.1557 15.1547 10.0159 16.5556 10.0159C17.9564 10.0159 19.0952 11.1557 19.0952 12.5556C19.0952 13.5237 17.6649 15.5443 16.5556 16.8598Z" fill="#00BB91"/>
<path d="M16.5551 11.0312C15.7149 11.0312 15.0312 11.7149 15.0312 12.5551C15.0312 13.3952 15.7149 14.0789 16.5551 14.0789C17.3952 14.0789 18.0789 13.3952 18.0789 12.5551C18.0789 11.7149 17.3952 11.0312 16.5551 11.0312ZM16.5551 13.063C16.2757 13.063 16.0471 12.8354 16.0471 12.5551C16.0471 12.2747 16.2757 12.0471 16.5551 12.0471C16.8344 12.0471 17.063 12.2747 17.063 12.5551C17.063 12.8354 16.8344 13.063 16.5551 13.063Z" fill="#00BB91"/>
<path d="M10.8425 12.1567C10.6336 11.9478 10.2951 11.9478 10.0862 12.1567L8.99993 13.2435L7.9129 12.1567C7.70398 11.9478 7.36561 11.9478 7.15669 12.1567C6.94777 12.3657 6.94777 12.7042 7.15669 12.9131L8.24372 13.9999L7.15669 15.087C6.94777 15.2959 6.94777 15.6343 7.15669 15.8433C7.26111 15.9477 7.39831 16 7.53517 16C7.67203 16 7.80881 15.9477 7.91372 15.8433L9 14.7561L10.087 15.8433C10.1915 15.9477 10.3283 16 10.4652 16C10.602 16 10.7388 15.9477 10.8433 15.8433C11.0522 15.6343 11.0522 15.2959 10.8433 15.087L9.75689 13.9999L10.8432 12.9131C11.0513 12.7041 11.0513 12.3656 10.8425 12.1567Z" fill="#00BB91"/>
</svg>
