<svg width="28" height="28" viewBox="0 0 28 28" fill="none" xmlns="http://www.w3.org/2000/svg">
<path d="M23.1924 4.80758C20.737 2.3522 17.4724 1 14 1C10.5276 1 7.263 2.3522 4.80758 4.80758C2.3522 7.263 1 10.5276 1 14C1 17.4724 2.3522 20.737 4.80758 23.1924C7.263 25.6478 10.5276 27 14 27C17.4724 27 20.737 25.6478 23.1924 23.1924C25.6478 20.737 27 17.4724 27 14C27 10.5276 25.6478 7.263 23.1924 4.80758ZM14 25.9642C7.40296 25.9642 2.03584 20.5971 2.03584 14C2.03584 7.40291 7.40296 2.03584 14 2.03584C20.597 2.03584 25.9642 7.40296 25.9642 14C25.9642 20.597 20.597 25.9642 14 25.9642Z" fill="#00BB91"/>
<path d="M18.9527 13.4422H15.7693C15.5876 12.8674 15.1329 12.4127 14.558 12.231V7.30678C14.558 6.99873 14.3083 6.74902 14.0003 6.74902C13.6922 6.74902 13.4425 6.99873 13.4425 7.30678V12.2311C12.6915 12.4684 12.1455 13.1716 12.1455 14C12.1455 15.0228 12.9776 15.8548 14.0003 15.8548C14.8288 15.8548 15.5319 15.3088 15.7693 14.5578H18.9527C19.2607 14.5578 19.5104 14.3081 19.5104 14C19.5104 13.6919 19.2607 13.4422 18.9527 13.4422ZM14.0002 14.7393C13.5925 14.7393 13.261 14.4076 13.261 14C13.261 13.5923 13.5926 13.2607 14.0002 13.2607C14.4079 13.2607 14.7395 13.5923 14.7395 14C14.7395 14.4076 14.4079 14.7393 14.0002 14.7393Z" fill="#00BB91"/>
</svg>
