<svg width="28" height="28" viewBox="0 0 28 28" fill="none" xmlns="http://www.w3.org/2000/svg">
<path d="M23.1924 4.80758C20.737 2.3522 17.4724 1 14 1C10.5276 1 7.263 2.3522 4.80758 4.80758C2.3522 7.263 1 10.5276 1 14C1 17.4724 2.3522 20.737 4.80758 23.1924C7.263 25.6478 10.5276 27 14 27C17.4724 27 20.737 25.6478 23.1924 23.1924C25.6478 20.737 27 17.4724 27 14C27 10.5276 25.6478 7.263 23.1924 4.80758ZM14 25.9642C7.40296 25.9642 2.03584 20.5971 2.03584 14C2.03584 7.40291 7.40296 2.03584 14 2.03584C20.597 2.03584 25.9642 7.40296 25.9642 14C25.9642 20.597 20.597 25.9642 14 25.9642Z" fill="#00BB91"/>
<path d="M19.125 12C18.3112 12 17.6237 12.5238 17.365 13.25H9.635C9.37625 12.5238 8.68875 12 7.875 12C6.84125 12 6 12.8412 6 13.875C6 14.9088 6.84125 15.75 7.875 15.75C8.68875 15.75 9.37625 15.2262 9.635 14.5H17.365C17.6237 15.2262 18.3112 15.75 19.125 15.75C20.1587 15.75 21 14.9088 21 13.875C21 12.8412 20.1587 12 19.125 12ZM7.875 14.5C7.53125 14.5 7.25 14.22 7.25 13.875C7.25 13.53 7.53125 13.25 7.875 13.25C8.21875 13.25 8.5 13.53 8.5 13.875C8.5 14.22 8.21875 14.5 7.875 14.5ZM19.125 14.5C18.7812 14.5 18.5 14.22 18.5 13.875C18.5 13.53 18.7812 13.25 19.125 13.25C19.4688 13.25 19.75 13.53 19.75 13.875C19.75 14.22 19.4688 14.5 19.125 14.5Z" fill="#00BB91"/>
</svg>
