<svg width="20" height="20" viewBox="0 0 20 20" fill="none" xmlns="http://www.w3.org/2000/svg">
<path d="M19.1497 0.500977H5.17967C4.71033 0.501524 4.33001 0.881852 4.32946 1.35119V5.20448L3.69063 4.24623C3.39822 3.80515 2.81014 3.67281 2.35698 3.94616L1.04267 4.73635C0.612256 4.98892 0.296514 5.39847 0.161793 5.87898C-0.317661 7.62476 0.0380914 10.6325 4.45285 15.0479C7.96368 18.5551 10.5813 19.4997 12.3854 19.4997C12.8031 19.5016 13.2192 19.4473 13.6224 19.3383C14.1027 19.2036 14.5123 18.8883 14.7653 18.4584L15.5545 17.1428C15.8268 16.69 15.6946 16.1031 15.2545 15.8108L12.1074 13.7129C11.6756 13.4274 11.097 13.5213 10.7777 13.9286L9.86145 15.1066C9.76568 15.2326 9.59197 15.2693 9.45334 15.1929L9.27896 15.0969C8.70515 14.7841 7.99099 14.3947 6.54864 12.9524C6.39258 12.7963 6.25122 12.6503 6.11853 12.5106H19.1497C19.6179 12.5109 19.9981 12.1325 20 11.6643V1.35119C19.9994 0.881852 19.6191 0.501524 19.1497 0.500977ZM8.9599 15.6824L9.12927 15.7754C9.55504 16.0135 10.091 15.903 10.3879 15.516L11.3041 14.3381C11.4083 14.2054 11.5968 14.1748 11.7376 14.2677L14.8847 16.3656C15.0276 16.4609 15.0706 16.6516 14.9824 16.799L14.1932 18.1147C14.0284 18.3973 13.7606 18.6052 13.446 18.6948C11.8699 19.1283 9.11161 18.7615 4.92523 14.5748C0.73885 10.3881 0.373486 7.63007 0.805897 6.05535C0.89549 5.74078 1.10324 5.47306 1.38569 5.30818L2.70136 4.51864C2.84878 4.43058 3.03942 4.47352 3.13479 4.61632L5.23363 7.76343C5.3267 7.90417 5.2961 8.09281 5.16326 8.19686L3.98496 9.11341C3.59803 9.41024 3.48753 9.94607 3.72556 10.3717L3.8189 10.5411C4.15231 11.1526 4.56674 11.9134 6.07747 13.4238C7.58823 14.9342 8.34877 15.349 8.9599 15.6824ZM19.3332 11.6644C19.3321 11.7647 19.25 11.8452 19.1498 11.8444H5.51706C5.08402 11.3492 4.71061 10.805 4.40444 10.2227L4.3084 10.0477C4.23182 9.90935 4.26847 9.73579 4.39444 9.64022L5.57273 8.72366C5.98026 8.40444 6.07415 7.82571 5.78845 7.394L4.99626 6.20504V1.35119C4.99572 1.30238 5.01486 1.25542 5.04936 1.22092C5.08386 1.18642 5.13083 1.16727 5.17963 1.16782H19.1497C19.1986 1.16727 19.2455 1.18642 19.28 1.22092C19.3145 1.25542 19.3337 1.30238 19.3331 1.35119V11.6644H19.3332Z" fill="#00BB91"/>
<path d="M18.0015 2.04436L12.4291 6.2704C12.2714 6.38496 12.058 6.38496 11.9003 6.2704L6.32999 2.04436C6.18323 1.93305 5.974 1.9618 5.86272 2.10856C5.75141 2.25531 5.78016 2.46455 5.92692 2.57582L11.4979 6.80151C11.8943 7.09432 12.4352 7.09432 12.8316 6.80151L18.4043 2.57582C18.4748 2.52237 18.5212 2.44306 18.5332 2.35538C18.5452 2.2677 18.5219 2.17885 18.4683 2.1084C18.357 1.96192 18.1481 1.93328 18.0015 2.04436Z" fill="#00BB91"/>
<path d="M9.3195 6.8294L5.90401 10.487C5.77843 10.6217 5.78582 10.8327 5.9205 10.9583C6.05518 11.0838 6.26621 11.0765 6.39179 10.9418L9.80732 7.28256C9.92016 7.14643 9.90707 6.94587 9.77754 6.82549C9.64798 6.70511 9.44699 6.70683 9.3195 6.8294Z" fill="#00BB91"/>
<path d="M15.0324 6.82969C14.9069 6.69501 14.6959 6.68759 14.5611 6.81321C14.4265 6.93878 14.419 7.14977 14.5447 7.28449L17.9592 10.9421C18.0847 11.0768 18.2957 11.0842 18.4305 10.9586C18.5651 10.833 18.5726 10.622 18.4469 10.4873L15.0324 6.82969Z" fill="#00BB91"/>
</svg>
