<svg width="677" height="586" viewBox="0 0 677 586" fill="none" xmlns="http://www.w3.org/2000/svg">
<path d="M291.102 99.8006L311.177 136.801L317.475 126.567L323.773 118.695L347.39 99.8006L356.05 107.279L370.614 93.5026L356.05 86.0237L383.21 46.6611L406.041 49.4165L413.126 59.6508L425.328 55.7145L431.626 59.6508L437.137 63.9806C441.861 62.931 452.252 62.6423 456.031 69.885C459.81 77.1278 457.606 99.9318 456.031 110.428L474.532 132.078H478.468V82.0874H488.702V75.3958L533.969 78.9384L552.863 93.5026L546.171 99.8006L569.789 148.217H579.63L607.183 188.366L602.066 193.877L610.332 208.835L615.843 213.165L610.332 216.314L620.567 236.782H615.843L607.183 261.581V267.879L602.066 275.358L607.183 291.103L620.567 307.635L639.854 311.965V321.806L620.567 322.986L623.322 328.497L610.332 337.551C613.35 339.65 618.677 344.793 615.843 348.572C613.009 352.351 610.989 368.253 610.332 375.732C610.07 378.75 608.049 384.786 602.066 384.786C584.747 426.667 594.85 504.054 602.066 537.512H586.321L579.63 407.222H573.725L569.789 348.572L563.097 360.381V366.679L552.863 369.434V384.786H533.969V375.732H539.086C540.267 363.005 541.92 337.551 539.086 337.551C536.252 337.551 527.409 341.749 523.341 343.849C512.713 345.423 490.119 348.572 484.766 348.572C479.413 348.572 478.337 330.728 478.468 321.806H470.989C470.333 320.1 468.312 316.925 465.478 317.869C462.644 318.814 445.403 342.143 437.137 353.689L408.796 328.497L446.584 298.582V275.358H431.626L402.498 280.868V267.879L395.806 261.581L390.689 232.452L383.21 225.761L390.689 220.25L365.497 197.026L351.327 193.877L339.912 184.43L320.624 199.782L261.58 136.801L269.846 132.078L261.58 118.695L291.102 99.8006Z" fill="#FAF8F9"/>
<circle opacity="0.3" cx="495.952" cy="226.357" r="6.00597" stroke="#00BB91" stroke-width="1.09199"/>
<g opacity="0.05">
<circle cx="495.953" cy="226.357" r="11.4659" stroke="#00BB91" stroke-width="1.09199"/>
<circle cx="495.953" cy="226.357" r="11.4659" stroke="#00BB91" stroke-width="1.09199"/>
</g>
<circle cx="495.953" cy="226.357" r="3.27598" fill="#00BB91"/>
<path d="M490.22 230.303C470.872 243.442 430.933 269.72 425.958 269.72C419.739 269.72 405.228 269.72 392.79 253.124C382.84 239.846 354.095 276.636 340.966 296.69C334.056 301.531 317.749 310.382 307.799 307.063C297.848 303.743 274.631 336.107 264.266 352.703C256.666 357.544 235.66 346.48 212.442 263.497C183.421 159.768 139.889 340.256 102.575 311.212C65.2619 282.168 40.3863 246.9 1 226.154" stroke="#00BB91" stroke-width="1.5745"/>
<path d="M490.22 230.303C470.872 243.442 430.933 269.72 425.958 269.72C419.739 269.72 405.228 269.72 392.79 253.124C382.84 239.846 354.095 276.636 340.966 296.69C334.056 301.531 317.749 310.382 307.799 307.063C297.848 303.743 274.631 336.107 264.266 352.703C256.666 357.544 235.66 346.48 212.442 263.497C183.421 159.768 139.889 340.256 102.575 311.212C65.2619 282.168 40.3863 246.9 1 226.154" stroke="url(#paint0_linear)" stroke-width="1.5745"/>
<path d="M501.994 223.121C511.318 216.659 530.184 203.172 531.052 200.921C532.138 198.106 534.671 191.54 529.332 183.013C525.061 176.192 546.728 169.607 558.096 167.167C561.493 164.885 568.346 159.05 568.581 153.968C568.816 148.885 587.516 144.029 596.836 142.236C600.354 139.641 599.014 128.203 565.514 103.208C523.639 71.9639 612.919 83.7754 606.29 61.8184C599.66 39.8613 588.043 22.4463 585.531 1" stroke="#00BB91" stroke-width="1.41705"/>
<path d="M501.994 223.121C511.318 216.659 530.184 203.172 531.052 200.921C532.138 198.106 534.671 191.54 529.332 183.013C525.061 176.192 546.728 169.607 558.096 167.167C561.493 164.885 568.346 159.05 568.581 153.968C568.816 148.885 587.516 144.029 596.836 142.236C600.354 139.641 599.014 128.203 565.514 103.208C523.639 71.9639 612.919 83.7754 606.29 61.8184C599.66 39.8613 588.043 22.4463 585.531 1" stroke="url(#paint1_linear)" stroke-width="1.41705"/>
<path d="M492.076 220.546C487.909 212.303 479.146 195.578 477.427 194.625C475.279 193.434 470.267 190.655 462.792 194.006C456.813 196.687 453.929 178.475 453.234 169.033C451.774 166.038 447.837 159.858 443.764 159.099C439.691 158.34 437.869 142.715 437.467 134.997C435.769 131.87 426.394 131.669 402.483 155.887C372.595 186.159 392.121 115.479 373.67 118.366C355.22 121.253 339.873 128.671 322.296 128.295" stroke="#00BB91" stroke-width="1.1538"/>
<path d="M492.076 220.546C487.909 212.303 479.146 195.578 477.427 194.625C475.279 193.434 470.267 190.655 462.792 194.006C456.813 196.687 453.929 178.475 453.234 169.033C451.774 166.038 447.837 159.858 443.764 159.099C439.691 158.34 437.869 142.715 437.467 134.997C435.769 131.87 426.394 131.669 402.483 155.887C372.595 186.159 392.121 115.479 373.67 118.366C355.22 121.253 339.873 128.671 322.296 128.295" stroke="url(#paint2_linear)" stroke-width="1.1538"/>
<path d="M500.092 231.989C504.359 236.866 513.227 246.707 514.561 247.055C516.228 247.49 520.119 248.506 524.615 244.927C528.212 242.064 533.343 253.939 535.46 260.234C536.973 262.016 540.726 265.53 543.626 265.337C546.526 265.143 550.485 275.445 552.102 280.62C553.801 282.45 560.207 280.954 572.24 260.331C587.281 234.553 586.319 285.988 598.355 280.813C610.392 275.638 619.53 267.924 631.541 265.119" stroke="#00BB91" stroke-width="0.809473"/>
<path d="M500.092 231.989C504.359 236.866 513.227 246.707 514.561 247.055C516.228 247.49 520.119 248.506 524.615 244.927C528.212 242.064 533.343 253.939 535.46 260.234C536.973 262.016 540.726 265.53 543.626 265.337C546.526 265.143 550.485 275.445 552.102 280.62C553.801 282.45 560.207 280.954 572.24 260.331C587.281 234.553 586.319 285.988 598.355 280.813C610.392 275.638 619.53 267.924 631.541 265.119" stroke="url(#paint3_linear)" stroke-width="0.809473"/>
<path d="M494.844 233.179C493.663 250.112 491.755 284.758 493.571 287.879C495.84 291.78 501.136 300.883 516.087 302.629C528.048 304.025 515.46 335.485 507.671 351.04C507.157 357.142 507.556 370.602 513.269 375.633C518.983 380.664 507.154 407.041 500.526 419.6C500.263 426.135 514.871 435.275 575.403 419.553C651.068 399.901 553.729 493.084 585.568 505.891C617.407 518.699 648.61 521.433 676 538.569" stroke="#00BB91" stroke-width="1.63099"/>
<path d="M494.844 233.179C493.663 250.112 491.755 284.758 493.571 287.879C495.84 291.78 501.136 300.883 516.087 302.629C528.048 304.025 515.46 335.485 507.671 351.04C507.157 357.142 507.556 370.602 513.269 375.633C518.983 380.664 507.154 407.041 500.526 419.6C500.263 426.135 514.871 435.275 575.403 419.553C651.068 399.901 553.729 493.084 585.568 505.891C617.407 518.699 648.61 521.433 676 538.569" stroke="url(#paint4_linear)" stroke-width="1.63099"/>
<defs>
<linearGradient id="paint0_linear" x1="118.3" y1="309.997" x2="765.93" y2="226.205" gradientUnits="userSpaceOnUse">
<stop offset="0.0954014" stop-color="white"/>
<stop offset="0.410881" stop-color="white" stop-opacity="0.7"/>
<stop offset="1" stop-color="white" stop-opacity="0"/>
</linearGradient>
<linearGradient id="paint1_linear" x1="604.817" y1="4.12947" x2="452.007" y2="347.178" gradientUnits="userSpaceOnUse">
<stop stop-color="white"/>
<stop offset="1" stop-color="white" stop-opacity="0"/>
</linearGradient>
<linearGradient id="paint2_linear" x1="326.98" y1="113.092" x2="586.528" y2="274.756" gradientUnits="userSpaceOnUse">
<stop stop-color="white"/>
<stop offset="1" stop-color="white" stop-opacity="0"/>
</linearGradient>
<linearGradient id="paint3_linear" x1="631.005" y1="276.267" x2="426.461" y2="211.596" gradientUnits="userSpaceOnUse">
<stop stop-color="white"/>
<stop offset="1" stop-color="white" stop-opacity="0"/>
</linearGradient>
<linearGradient id="paint4_linear" x1="654.299" y1="558.157" x2="396.783" y2="58.7257" gradientUnits="userSpaceOnUse">
<stop stop-color="white"/>
<stop offset="1" stop-color="white" stop-opacity="0"/>
</linearGradient>
</defs>
</svg>