<svg width="19" height="19" viewBox="0 0 19 19" fill="none" xmlns="http://www.w3.org/2000/svg">
<g clip-path="url(#clip0)">
<path d="M18.2567 2.38802H6.93696C6.62575 1.46371 5.75148 0.795898 4.72355 0.795898C3.69563 0.795898 2.82136 1.46371 2.51015 2.38802H0.743219C0.332764 2.38802 0 2.72079 0 3.13124C0 3.5417 0.332764 3.87446 0.743219 3.87446H2.5102C2.82141 4.79878 3.69568 5.46658 4.7236 5.46658C5.75152 5.46658 6.6258 4.79878 6.93701 3.87446H18.2568C18.6672 3.87446 19 3.5417 19 3.13124C19 2.72079 18.6672 2.38802 18.2567 2.38802ZM4.72355 3.98015C4.25548 3.98015 3.87465 3.59932 3.87465 3.13124C3.87465 2.66316 4.25548 2.28234 4.72355 2.28234C5.19163 2.28234 5.57246 2.66316 5.57246 3.13124C5.57246 3.59932 5.19163 3.98015 4.72355 3.98015Z" fill="#00BB91"/>
<path d="M18.2567 8.75619H16.4898C16.1785 7.83187 15.3042 7.16406 14.2763 7.16406C13.2485 7.16406 12.3742 7.83187 12.063 8.75619H0.743219C0.332764 8.75619 0 9.08895 0 9.49941C0 9.90986 0.332764 10.2426 0.743219 10.2426H12.063C12.3742 11.1669 13.2485 11.8347 14.2764 11.8347C15.3043 11.8347 16.1786 11.1669 16.4898 10.2426H18.2568C18.6672 10.2426 19 9.90986 19 9.49941C19 9.08895 18.6672 8.75619 18.2567 8.75619ZM14.2764 10.3483C13.8083 10.3483 13.4275 9.96748 13.4275 9.49941C13.4275 9.03133 13.8083 8.6505 14.2764 8.6505C14.7445 8.6505 15.1253 9.03133 15.1253 9.49941C15.1253 9.96748 14.7445 10.3483 14.2764 10.3483Z" fill="#00BB91"/>
<path d="M18.2567 15.1253H10.1213C9.81005 14.201 8.93577 13.5332 7.90785 13.5332C6.87993 13.5332 6.00566 14.201 5.69445 15.1253H0.743219C0.332764 15.1253 0 15.4581 0 15.8685C0 16.279 0.332764 16.6118 0.743219 16.6118H5.69445C6.00566 17.5361 6.87993 18.2039 7.90785 18.2039C8.93577 18.2039 9.81005 17.5361 10.1213 16.6118H18.2568C18.6672 16.6118 19 16.279 19 15.8685C19 15.4581 18.6672 15.1253 18.2567 15.1253ZM7.90785 16.7175C7.43977 16.7175 7.05895 16.3367 7.05895 15.8686C7.05895 15.4005 7.43977 15.0197 7.90785 15.0197C8.37593 15.0197 8.75676 15.4005 8.75676 15.8685C8.75676 16.3366 8.37593 16.7175 7.90785 16.7175Z" fill="#00BB91"/>
</g>
<defs>
<clipPath id="clip0">
<rect width="19" height="19" fill="white"/>
</clipPath>
</defs>
</svg>
