<svg width="20" height="20" viewBox="0 0 20 20" fill="none" xmlns="http://www.w3.org/2000/svg">
<g clip-path="url(#clip0)">
<path d="M11.9531 13.5156H11.5625V8.4375C11.5625 8.22174 11.3876 8.04688 11.1719 8.04688H8.04688C7.83112 8.04688 7.65625 8.22174 7.65625 8.4375V10C7.65625 10.2158 7.83112 10.3906 8.04688 10.3906H8.4375V13.5156H8.04688C7.83112 13.5156 7.65625 13.6905 7.65625 13.9062V15.4688C7.65625 15.6845 7.83112 15.8594 8.04688 15.8594H11.9531C12.1689 15.8594 12.3438 15.6845 12.3438 15.4688V13.9062C12.3438 13.6905 12.1689 13.5156 11.9531 13.5156ZM11.5625 15.0781H8.4375V14.2969H8.82812C9.04388 14.2969 9.21875 14.122 9.21875 13.9062V10C9.21875 9.78424 9.04388 9.60938 8.82812 9.60938H8.4375V8.82812H10.7812V13.9062C10.7812 14.122 10.9563 14.2969 11.1719 14.2969H11.5625V15.0781Z" fill="#00BB91"/>
<path d="M10 7.26562C10.8615 7.26562 11.5625 6.56464 11.5625 5.70312C11.5625 4.84161 10.8615 4.14062 10 4.14062C9.13849 4.14062 8.4375 4.84161 8.4375 5.70312C8.4375 6.56464 9.13849 7.26562 10 7.26562ZM10 4.92188C10.4308 4.92188 10.7812 5.27237 10.7812 5.70312C10.7812 6.13388 10.4308 6.48438 10 6.48438C9.56924 6.48438 9.21875 6.13388 9.21875 5.70312C9.21875 5.27237 9.56924 4.92188 10 4.92188Z" fill="#00BB91"/>
<path d="M10 0C4.61031 0 1.70344e-05 4.60159 1.70344e-05 10C1.70344e-05 11.844 0.528429 13.8051 1.41939 15.2884L0.0200061 19.4859C-0.0266859 19.6262 0.00978266 19.781 0.114458 19.8856C0.219591 19.9907 0.37462 20.0266 0.514238 19.9799L4.71178 18.5806C6.19493 19.4717 8.15599 20 10 20C15.3911 20 20 15.3978 20 10C20 4.60892 15.398 0 10 0V0ZM10 19.2188C8.23106 19.2188 6.35088 18.6967 4.97041 17.8224C4.87261 17.7605 4.75069 17.7441 4.63777 17.7818L1.00832 18.9917L2.21819 15.3622C2.25542 15.2509 2.24046 15.1288 2.1776 15.0296C1.30327 13.6493 0.781267 11.769 0.781267 10C0.781267 5.0029 5.00292 0.78125 10 0.78125C14.9971 0.78125 19.2188 5.0029 19.2188 10C19.2188 14.9971 14.9971 19.2188 10 19.2188Z" fill="#00BB91"/>
</g>
<defs>
<clipPath id="clip0">
<rect width="20" height="20" fill="white"/>
</clipPath>
</defs>
</svg>
