<svg width="64" height="64" viewBox="0 0 64 64" fill="none" xmlns="http://www.w3.org/2000/svg">
<path d="M50.9434 39.7676C49.8335 39.7676 48.7236 39.9156 47.6877 40.1745C47.6877 39.7676 47.6507 39.2126 47.4658 39.1017C47.4288 39.0647 47.3918 39.0647 47.3178 39.0647C47.2808 38.4357 47.1698 37.2889 46.8368 36.401C46.3559 35.1431 46.5409 33.8483 46.8368 33.0714C47.0218 32.6274 47.1328 32.2574 47.2068 31.9245C47.3178 31.7025 47.3548 31.4805 47.3548 31.2216C47.3548 30.7406 47.2438 30.3707 47.1328 30.1487C47.1698 30.0747 47.2068 30.0377 47.2068 29.9637C47.1698 29.8897 46.6518 29.4458 46.6518 29.3718C46.6518 29.2978 46.6148 29.0018 46.5409 28.9278C46.4669 28.8168 46.3559 28.6319 46.3559 28.4839C46.3189 28.3359 46.0969 28.1879 46.1339 28.0769C46.1709 27.9659 46.2079 27.781 46.0969 27.596C45.9859 27.411 45.7639 27.226 45.579 27.226C45.357 27.226 45.098 27.041 44.913 27.004C44.7281 26.967 44.5061 27.041 44.2841 27.004C44.0621 26.967 43.4332 26.1161 43.4332 26.1161H43.1742C43.1742 26.1161 39.3267 20.1598 38.8087 19.6419C38.2908 19.1239 37.2549 18.273 36.663 17.4591C36.0711 16.6452 34.9982 13.8336 34.4432 13.1306C33.8883 12.4277 33.5553 11.8358 33.2964 11.6508C33.0744 11.4658 33.4074 11.3548 33.4444 11.2069C33.4814 11.0589 33.4444 10.8369 33.7403 10.6149C33.9993 10.3929 34.4432 10.06 34.9612 10.097C35.4791 10.134 35.9971 10.208 36.219 9.949C36.441 9.69003 36.33 9.24608 36.404 9.0981C36.478 8.95011 36.663 8.80213 36.663 8.61715C36.663 8.39518 36.7 8.13621 36.848 8.06221C36.9959 7.98822 36.9959 7.61827 36.885 7.43329C36.774 7.21131 36.9959 7.21131 37.2179 7.13732C37.4029 7.06333 37.5879 6.84135 37.3659 6.54539C37.1439 6.24942 36.959 5.69449 36.959 5.25054C36.959 4.80659 36.996 4.47362 36.996 4.47362C36.996 4.47362 38.0318 4.06667 38.2538 4.02968C38.4758 3.99268 38.9567 3.88169 38.9567 3.77071C38.9197 3.65972 38.3648 3.03079 37.8099 2.36487C37.2549 1.69894 35.8491 0.256107 33.9253 0.0341325C32.0015 -0.187842 29.6338 0.737052 29.4858 0.959027C29.3748 1.181 29.4488 1.62495 29.2268 1.88392C28.9679 2.14289 28.9309 2.58684 28.8939 2.9198C28.8569 3.21577 28.9309 3.51173 28.7089 3.91869C28.4499 4.32564 28.4499 4.76959 28.5979 4.99157C28.7459 5.25054 29.0049 5.62049 29.1158 5.62049C29.2268 5.62049 29.5968 5.5465 29.6708 5.91646C29.7448 6.28642 29.8928 6.69337 29.7448 6.84135C29.5968 6.98934 29.5598 7.2853 29.3748 7.3223C29.1898 7.35929 28.228 7.47028 27.932 7.87723C27.747 8.13621 27.3771 8.39518 26.8221 8.72814C26.1932 8.80213 25.1203 8.09921 24.8613 7.87723C24.1214 7.84024 23.7145 8.43217 23.2335 8.28419C23.1595 7.80324 23.4555 7.61826 23.3815 7.13732C22.9376 6.32341 21.7167 7.17432 21.1248 6.58238C20.7178 6.69337 20.3479 7.13732 19.8669 7.24831C19.312 7.39629 18.6091 7.21131 18.3871 7.80324C18.3501 8.32119 18.6091 8.54316 18.6831 8.95011C18.3501 9.24608 18.1281 8.87612 17.7582 8.87612C17.4992 9.0611 17.4992 9.43106 17.2032 9.57904C17.0182 9.54204 17.1292 9.17209 16.9072 9.20908C16.3893 9.46805 16.0193 9.87501 15.6124 10.245C15.5754 10.4299 15.7234 10.4669 15.6864 10.6519C15.5384 11.1329 14.9835 11.3918 14.6875 11.8728C14.5025 12.1687 14.3545 12.5757 14.1696 12.9457C13.8736 13.5006 13.5036 13.9075 13.6146 14.6845C12.9487 15.4244 13.9846 17.0892 13.9106 17.7551C13.8736 17.9771 13.6886 18.1621 13.6516 18.347C13.5036 19.6419 14.2806 20.9367 15.0945 21.4547C14.4285 22.9345 14.2436 24.1924 14.2436 24.1924L14.5395 24.4883C14.5395 24.4883 14.2066 25.6352 14.3545 26.6341C14.4655 27.596 15.2054 28.5579 16.3523 29.0388C17.4992 29.5198 18.6831 30.1487 18.868 30.3337C19.016 30.5556 20.2739 32.0725 20.5328 32.6274C20.7918 33.1823 21.4947 35.0691 21.5317 35.1801C21.5687 35.2911 21.2358 35.5871 21.2358 35.5871C21.2358 35.5871 21.6427 35.809 21.6427 35.846V35.883C21.4207 35.957 20.6808 36.29 20.6438 36.364C20.6068 36.438 20.7918 36.8079 20.9768 36.8819C21.1248 37.1409 21.7167 38.2508 22.5306 38.5837C22.5676 38.7317 22.6786 38.9907 22.7526 39.1387C22.6046 39.1757 22.4566 39.2127 22.2716 39.2496C21.6797 39.4346 21.1988 39.9896 20.9398 40.3595C20.6808 40.3225 20.4218 40.3595 20.2739 40.4705C20.0519 40.6555 19.5339 41.4694 19.312 41.8023C17.3142 40.3595 14.8725 39.5086 12.2458 39.5086C5.51255 39.4716 0.0371834 44.91 0.00018764 51.6432C-0.0368081 58.3765 5.40157 63.8518 12.1348 63.8888C17.0922 63.9258 21.3837 60.9662 23.3075 56.7116L25.5643 56.2307C25.7492 56.3787 25.9712 56.4897 26.3412 56.6007C27.377 56.8596 28.3389 57.0076 28.3389 57.0076C28.3389 57.0076 28.6719 57.1926 28.9309 57.2296C29.1898 57.3036 29.3378 57.4146 29.3378 57.4146C29.3378 57.4146 29.1898 57.5625 29.1898 57.5995C29.2268 57.6365 29.4858 57.9325 29.5228 57.8955C29.5968 57.8955 29.6338 57.8955 29.6338 57.8955C29.6338 57.8955 29.5968 57.9695 29.7078 58.0805C29.7818 58.1915 30.2257 58.5984 30.3737 58.5984C30.5587 58.5984 30.9286 58.2655 31.0396 58.2285C31.1506 58.2285 31.1876 58.5244 31.3356 58.4874C31.4836 58.4505 32.2605 57.9325 32.2605 57.9325L32.0385 57.5256C32.0385 57.5256 32.4085 57.6365 32.5934 57.5625C32.7784 57.4886 33.4444 57.0076 33.5183 57.0076C33.5923 57.0076 33.9253 56.9706 33.9993 56.8226C34.1103 56.6747 34.3693 55.8977 33.2594 55.6758C32.1495 55.4538 31.8535 55.5278 31.8165 55.4168C31.7796 55.3058 31.8905 55.1948 31.8535 55.1578C31.8165 55.1208 31.1136 54.7509 31.0396 54.7879C30.9656 54.7879 30.9656 54.9728 30.9286 54.9728C30.8546 54.9728 30.6697 54.7879 30.6697 54.7139C30.6697 54.6399 30.6697 54.3809 30.5587 54.3069C30.4847 54.2329 30.3367 54.0849 30.2257 53.974C30.3737 53.604 30.4477 53.197 30.4477 52.7901C30.4477 52.2722 30.3367 51.7542 30.0777 51.3103C30.2257 51.0883 30.2997 50.8663 30.3737 50.6443L41.9534 35.6611C42.1384 36.068 42.2863 36.364 42.3233 36.401C42.5453 36.5859 42.6193 36.8449 42.6193 36.8449C42.5453 36.9189 42.5453 37.0299 42.6933 37.1039C43.2852 37.5478 43.2852 38.1028 43.5442 38.5837C43.8032 39.0647 44.0991 38.8797 44.2841 39.1757C44.3211 39.2496 44.6911 40.0266 45.135 41.0994C41.3615 43.1342 38.7717 47.1667 38.7347 51.7542C38.6978 58.4874 44.1361 63.9628 50.8694 63.9998C57.6026 64.0368 63.078 58.5984 63.115 51.8652C63.115 45.3169 57.6766 39.8046 50.9434 39.7676ZM60.7472 50.1264L56.1598 50.0894L60.0443 47.8697C60.3403 48.5726 60.5992 49.3495 60.7472 50.1264ZM59.9333 47.6477L55.6418 50.0894H54.384C54.273 49.7934 54.088 49.5345 53.903 49.2755L54.088 48.9425L54.8649 47.9806L58.7125 45.7979C59.1934 46.3528 59.6004 46.9818 59.9333 47.6477ZM54.458 50.3484H55.1979L54.5689 50.7183C54.5319 50.5704 54.5319 50.4594 54.458 50.3484ZM55.1979 52.5681H54.458C54.4949 52.4571 54.5319 52.3092 54.5689 52.1982L55.1979 52.5681ZM58.6015 45.5759L55.3828 47.4257L57.7136 44.614C58.0096 44.91 58.3055 45.206 58.6015 45.5759ZM52.4602 42.0983C53.2001 42.2093 53.903 42.4313 54.5689 42.6903L52.4232 46.3528L52.4602 42.0983ZM52.4602 46.8708L54.8649 42.7642C55.4938 43.0232 56.0858 43.3562 56.6407 43.7631L52.8301 48.3136C52.6822 48.2396 52.5712 48.1656 52.4232 48.1286L52.4602 46.8708ZM53.718 53.863L54.088 54.4919L53.4591 54.1219C53.5331 54.011 53.644 53.937 53.718 53.863ZM49.9815 47.2777L50.3514 47.9067C50.2404 47.9436 50.0924 47.9806 49.9815 48.0176V47.2777ZM49.9445 54.8249C50.0555 54.8619 50.2034 54.8989 50.3144 54.9358L49.9445 55.5648V54.8249ZM48.0207 48.0916L47.7987 47.9437L45.357 43.6521C45.542 43.5042 45.7639 43.3932 45.9859 43.2822C46.6888 44.947 47.4658 46.7968 48.0207 48.0916ZM46.5779 30.0747C46.7628 30.1857 46.9848 30.2967 47.0218 30.2967H47.0588C47.1328 30.4816 47.2068 30.7406 47.2438 31.0366C47.2068 30.9626 47.2068 30.8886 47.1698 30.8516C47.0588 30.6666 46.8738 30.5926 46.6149 30.5926C46.5779 30.5926 46.5409 30.5926 46.5039 30.5926C46.5409 30.3707 46.5779 30.2227 46.5779 30.0747ZM46.6149 30.7036C46.8368 30.7036 46.9478 30.7776 47.0588 30.8886C47.1698 31.0366 47.2438 31.3325 47.0958 31.8875C46.9478 32.2204 46.6888 32.5534 46.3559 32.8494C46.6148 32.3684 46.7258 31.9615 46.6518 31.5915C46.6148 31.4065 46.5039 31.2216 46.3559 31.0736C46.3929 30.9256 46.4299 30.7776 46.4669 30.6666C46.5409 30.7036 46.5779 30.7036 46.6149 30.7036ZM45.69 30.1487C45.8009 30.0747 46.0599 29.8897 46.1709 29.8897C46.2079 29.8897 46.3189 29.9267 46.4299 30.0007C46.4299 30.1487 46.4299 30.3337 46.3929 30.5556C46.2079 30.5556 46.0599 30.5556 45.9119 30.5926C45.7639 30.4077 45.653 30.1857 45.69 30.1487ZM46.3559 30.7036C46.3189 30.8146 46.3189 30.8886 46.2819 30.9996C46.2079 30.9256 46.1339 30.8886 46.0599 30.8516C46.0229 30.8146 46.0229 30.7776 45.9859 30.7036C46.0969 30.7036 46.2079 30.7036 46.3559 30.7036ZM44.0621 31.2216C44.0991 31.1846 44.7281 31.2216 44.913 31.2216C45.098 31.2216 45.209 31.0366 45.283 31.0366C45.357 31.0366 45.9119 31.1106 46.0599 30.9996C46.1339 31.0366 46.1709 31.0736 46.2449 31.1476C46.1709 31.3695 46.0599 31.6285 45.9119 31.8875C45.8009 31.8505 45.69 31.8135 45.542 31.7765C45.098 31.6655 44.6911 31.5915 44.3951 31.5545C44.3211 31.4435 44.0251 31.2586 44.0621 31.2216ZM24.1954 50.3484C24.0844 49.4975 23.8995 48.7206 23.6775 47.9437C24.1584 48.0916 24.6394 48.1656 24.6394 48.1656C24.6394 48.1656 24.9353 49.0535 24.9723 49.4235C25.0093 49.6455 25.0463 49.9044 25.0833 50.3484H24.1954ZM24.8983 50.6813C24.7504 50.8293 24.6394 50.9403 24.5284 51.1253H24.2324C24.2324 50.9773 24.2324 50.8293 24.1954 50.6813H24.8983ZM21.0138 36.9559C21.1988 36.8819 21.5317 36.6229 21.8277 36.549C21.9387 36.7709 22.0127 36.9929 22.0867 37.1779C21.7907 37.2889 21.5317 37.5108 21.4207 37.6218C21.2358 37.3259 21.0878 37.0669 21.0138 36.9559ZM21.6057 37.8438C21.5687 37.8068 21.5317 37.7698 21.4947 37.6958C21.6057 37.6218 21.8277 37.3999 22.1237 37.2519C22.1237 37.2889 22.1607 37.3259 22.1607 37.3629C22.1607 37.3629 22.1607 37.3629 22.1607 37.3999C21.9387 37.5108 21.7167 37.7328 21.6057 37.8438ZM21.6797 37.9178C21.7537 37.8438 21.9757 37.6218 22.1976 37.5478C22.2716 37.8808 22.3456 38.2878 22.3826 38.5097C22.1237 38.3987 21.9017 38.1768 21.6797 37.9178ZM21.1248 47.4627L16.8333 49.9044H15.5754C15.4644 49.6085 15.2794 49.3495 15.0945 49.0905L15.2794 48.7576L16.0563 47.7957L19.9039 45.6129C20.4218 46.1679 20.7918 46.7968 21.1248 47.4627ZM17.3512 49.9044L21.2358 47.6847C21.5687 48.3876 21.7907 49.1275 21.9387 49.9044H17.3512ZM21.9757 50.1634C21.9757 50.2004 21.9757 50.2744 22.0127 50.3114L16.6483 50.2744L16.9442 50.1264L21.9757 50.1634ZM16.3893 50.1634L16.0933 50.3114H15.6864C15.6864 50.2744 15.6494 50.2004 15.6494 50.1634H16.3893ZM19.7929 45.3909L16.5743 47.2407L18.905 44.4291C19.201 44.688 19.497 45.021 19.7929 45.3909ZM13.6886 41.8763C14.4285 41.9873 15.1315 42.2093 15.7974 42.4683L13.6516 46.1309L13.6886 41.8763ZM13.6516 46.6488L16.0563 42.5423C16.6853 42.8012 17.2772 43.1342 17.8321 43.5411L14.0586 48.1286C13.9106 48.0546 13.7996 47.9806 13.6516 47.9437V46.6488ZM17.3142 57.8585L15.1315 58.3395C15.0945 57.9695 15.1315 57.3406 14.9835 57.2666C14.8725 57.1926 14.5765 57.3406 14.4285 57.2666L14.3175 57.0816V57.0446C14.3175 56.7486 14.2806 55.1948 14.2436 54.2699C14.3175 54.2329 14.3915 54.1589 14.4285 54.1219L15.5384 54.7509L17.3142 57.8585ZM15.9824 54.9728L19.9409 57.3036L17.5732 57.7845L15.9824 54.9728ZM14.6505 53.937C14.7615 53.863 14.8355 53.752 14.9095 53.678L15.2794 54.3069L14.6505 53.937ZM11.1729 47.0927L11.5429 47.7217C11.4319 47.7587 11.2839 47.7957 11.1729 47.8327V47.0927ZM11.1359 54.8619C11.2839 54.8619 11.4689 54.8249 11.4689 54.8249L11.1359 55.3798V54.8619ZM6.32646 43.5781L8.5462 47.4627L4.55066 45.132C5.0686 44.577 5.66053 44.0591 6.32646 43.5781ZM4.40268 45.3539L8.80518 47.9437L9.43411 49.0535C9.24913 49.3125 9.06414 49.5715 8.95316 49.8674H7.6953L3.18181 47.2407C3.51478 46.5378 3.92174 45.9459 4.40268 45.3539ZM9.24913 48.2026L9.87805 48.5726C9.76706 48.6466 9.69308 48.7576 9.61909 48.8315L9.24913 48.2026ZM8.84217 52.3461H8.10226L8.73118 51.9762C8.76818 52.0872 8.80518 52.1982 8.84217 52.3461ZM8.13926 50.1264H8.87917C8.84218 50.2374 8.80517 50.3854 8.76818 50.4964L8.13926 50.1264ZM3.03383 47.4627L7.14037 49.8674L2.21993 49.8304C2.40491 48.9795 2.70087 48.2026 3.03383 47.4627ZM2.07194 51.7172C2.07194 51.1623 2.10895 50.6073 2.21993 50.0524L7.62131 50.0894L8.73118 50.7183C8.69418 50.8663 8.69419 51.0143 8.69419 51.1993C8.69419 51.3473 8.69418 51.5322 8.73118 51.6802L7.62131 52.3092L2.10894 52.2722C2.07194 52.1242 2.07194 51.9392 2.07194 51.7172ZM2.10894 52.5681L7.17736 52.6051L2.66388 55.1948C2.36791 54.3439 2.14594 53.456 2.10894 52.5681ZM2.73787 55.3798L7.65831 52.5681H8.91616C9.02715 52.8641 9.21213 53.1231 9.39711 53.382L8.76818 54.4919L3.77375 57.3406C3.3668 56.7486 2.99684 56.0827 2.73787 55.3798ZM9.28612 54.1959L9.21213 54.2329L9.24913 54.1219C9.28613 54.1959 9.28612 54.1959 9.28612 54.1959ZM3.92173 57.5625L8.50921 54.9358L5.80852 59.5603C5.0686 59.0054 4.43967 58.3395 3.92173 57.5625ZM10.8399 61.7431C9.87805 61.6321 8.99016 61.3731 8.13926 61.0032L10.8769 56.3417L10.8399 61.7431ZM10.8769 55.8238L7.91728 60.8922C7.25136 60.5962 6.58543 60.1892 6.03049 59.7453L8.99016 54.7139L9.65607 54.3439C9.84105 54.3439 10.063 54.2329 10.211 54.1959C10.248 54.1959 10.248 54.2329 10.285 54.2329C10.248 54.3069 10.211 54.4179 10.285 54.4549C10.322 54.4919 10.433 54.4549 10.581 54.4179C10.692 54.4919 10.8029 54.5289 10.9509 54.6029C10.9509 54.6399 10.9509 54.6399 10.9509 54.6769L10.8769 55.8238ZM10.9139 47.9067C10.618 48.0176 10.359 48.2026 10.1 48.3876L8.99016 47.7587L6.54843 43.4672C7.17736 43.0602 7.80629 42.7272 8.50921 42.4313L10.9139 46.6488V47.9067ZM10.9139 46.1309L8.73118 42.3203C9.4341 42.0613 10.174 41.9133 10.9139 41.8023V46.1309ZM13.3187 61.7431C12.9117 61.7801 12.4678 61.8171 12.0238 61.8171C11.6909 61.8171 11.3949 61.8171 11.0989 61.7801L11.1359 55.8977L11.5799 55.1578C11.6908 55.3058 11.9498 55.4908 12.5048 55.5648C12.8377 55.6018 13.0597 55.6388 13.2077 55.6758L13.3557 55.8977L13.3187 61.7431ZM13.3926 47.8327C13.2817 47.7957 13.1337 47.7587 13.0227 47.7217L13.3926 47.0927V47.8327ZM13.3926 46.5748L12.7637 47.6847C12.6157 47.6477 12.4678 47.6477 12.2828 47.6477C12.1348 47.6477 11.9498 47.6477 11.8018 47.6847L11.1729 46.5748L11.2099 41.8023C11.5059 41.7654 11.8388 41.7654 12.1348 41.7654C12.5787 41.7654 12.9857 41.8024 13.4296 41.8393L13.3926 46.5748ZM13.5776 61.7061L13.6146 56.8966C13.6886 57.6365 13.7996 58.5244 13.8366 58.6724C13.8736 58.9684 13.8366 59.3014 14.1696 59.1534C14.3915 59.0424 14.7615 58.8944 14.9835 58.7834L16.2413 60.9662C15.3904 61.2991 14.5025 61.5581 13.5776 61.7061ZM16.4263 60.8182L15.1315 58.5614C15.1315 58.5614 15.1315 58.5614 15.1315 58.5244L17.4252 58.0435L18.3501 59.6343C17.7581 60.0783 17.1292 60.4852 16.4263 60.8182ZM18.5351 59.4493L17.6842 57.9695L20.1999 57.4516L20.3109 57.5256C19.7929 58.2285 19.201 58.8944 18.5351 59.4493ZM20.5328 57.1926L20.3109 57.2296L15.7234 54.5659L15.0945 53.456C15.2424 53.271 15.3904 53.0491 15.5014 52.8271L18.2021 53.456L21.4577 55.3428C21.1988 55.9717 20.9028 56.6007 20.5328 57.1926ZM21.5317 55.0838L19.016 53.641L21.7537 54.2699C21.7167 54.5289 21.6427 54.8249 21.5317 55.0838ZM15.8344 51.0513C15.8344 50.9403 15.8344 50.8663 15.7974 50.7553L16.0563 50.6073L22.0127 50.6443C22.0127 50.7923 22.0497 50.9403 22.0497 51.0883L15.8344 51.0513ZM21.6797 40.5445C21.6427 40.5445 21.6057 40.5445 21.5687 40.5445C21.6797 40.2485 21.9017 39.8416 22.4566 39.7306C22.1976 40.0636 21.8277 40.5075 21.6797 40.5445ZM22.4936 39.6566V39.5826C21.8647 39.6936 21.5687 40.1745 21.4577 40.5445C21.3467 40.5445 21.1618 40.5075 20.9768 40.4705C21.2358 40.1375 21.6797 39.6196 22.1976 39.4716C22.3826 39.4346 22.5306 39.3976 22.6416 39.3606C22.6416 39.4346 22.6046 39.5086 22.4936 39.6566ZM22.9006 36.6599L23.1965 36.9189L22.9006 36.9559V36.6599ZM23.1595 37.4738L23.4925 37.2889C23.4925 37.2889 24.0844 37.8068 24.0474 37.8808C24.0104 37.9548 23.6405 37.9548 23.5295 37.9178C23.3815 37.9548 23.1595 37.4738 23.1595 37.4738ZM23.3075 56.6007C23.6405 55.8607 23.8625 55.0838 24.0474 54.2699H24.3064C24.4914 54.6769 24.7873 55.0468 25.1203 55.3798C25.1203 55.4168 25.1203 55.4538 25.1203 55.4908C25.1203 55.7498 25.1573 56.0087 25.3053 56.2307L23.3075 56.6007ZM27.562 24.8213C27.3771 24.5253 28.2279 23.7484 28.5239 23.4525C28.8199 23.1565 29.4858 22.0096 29.5228 21.7137C29.5598 21.4177 29.9298 20.1228 30.1147 20.0488C30.2997 19.9749 30.5587 20.9367 30.9286 21.5657C31.2986 22.1946 31.8905 23.3785 32.1495 23.7854C32.4085 24.1554 33.1484 25.1913 33.7403 25.7832C34.3323 26.4121 37.4769 29.4088 37.8099 29.7787L37.8469 29.8157C37.6249 30.0007 37.6619 30.1857 37.6989 30.2967C37.6989 30.3337 37.7359 30.3707 37.6989 30.4077C37.6619 30.4816 37.4399 30.6296 37.3289 30.6666L37.3659 30.7776C37.4029 30.7776 37.7359 30.6296 37.8099 30.4447C37.8469 30.3707 37.8099 30.2967 37.8099 30.2227C37.7729 30.1117 37.7729 30.0007 37.9208 29.8897C38.2538 30.2967 38.8457 30.9626 39.0307 31.1476C39.2527 31.3325 39.5117 32.1465 39.8816 32.2574C39.9926 32.2944 40.2146 32.3314 40.4366 32.3684C40.4736 32.4424 40.5105 32.5164 40.5475 32.6274L32.4085 35.4761C32.8524 35.1061 33.6663 34.4402 33.9993 34.1072C34.4432 33.5893 35.4791 31.8875 35.2201 30.7776C34.9612 29.7047 34.4802 28.9278 33.4444 28.4099C32.4085 27.8919 31.5576 26.8931 30.7807 26.5601C29.9668 26.1901 27.747 25.1173 27.562 24.8213ZM32.2975 36.9929L29.5598 38.1768C29.5598 38.1028 29.5968 38.0288 29.5968 37.9178L32.2975 36.9929ZM34.4802 42.3203C34.4802 42.0983 34.4432 41.8763 34.3693 41.6914L34.8502 41.0994C34.8502 41.0994 34.8502 41.0994 34.8502 41.0624L34.9612 41.1364L35.6641 40.2485C35.8491 39.9896 35.8121 39.6196 35.5901 39.4346L35.1462 39.0647L35.4421 38.6947C35.5161 38.5837 35.5161 38.4357 35.4051 38.3617C35.2941 38.2878 35.1462 38.2878 35.0722 38.3987L34.7762 38.7687L34.3323 38.3987C34.0733 38.2138 33.7033 38.2508 33.5183 38.4727L32.8154 39.3606L32.9264 39.4346C32.9264 39.4346 32.9264 39.4346 32.9264 39.4716L29.8928 43.2822C29.7078 43.5042 29.7448 43.8371 29.9668 44.0221L31.1876 44.984C31.4096 45.169 31.7426 45.132 31.9275 44.91L32.0015 44.836C32.0385 44.947 32.0755 45.058 32.0385 45.132C31.9645 45.243 31.7426 45.4649 31.7795 45.5019C31.8165 45.5389 32.0015 45.5389 32.1495 45.5389L29.7448 48.6836C29.4118 48.3876 28.9679 48.2026 28.4869 48.1656C28.5609 47.8327 28.6719 47.2407 28.6719 47.0188C28.6349 46.6858 28.9309 45.6869 29.0049 45.3539C29.0789 45.021 29.1528 43.1712 29.1898 42.2093C29.2268 41.2474 29.3378 40.2115 29.5228 39.5086C29.5968 39.2496 29.6708 38.8427 29.7448 38.3987L34.1103 36.512L38.1428 35.1061H40.2516L34.4802 42.3203ZM40.2146 34.8841H38.4018L40.8805 34.0332L40.2146 34.8841ZM42.0274 29.5568C41.9534 29.5938 41.8054 29.4088 41.8054 29.3348C41.8054 29.2608 42.1014 29.1868 42.2493 29.1498C42.3973 29.1128 42.3973 28.9278 42.3233 28.8168C42.2494 28.7059 41.3984 28.9648 41.2135 29.0388C41.0285 29.1128 40.9545 29.3348 40.5845 29.3348C40.2146 29.3348 39.6966 28.8168 39.6226 28.6689C39.5487 28.5209 39.1047 28.5209 38.9937 28.3729C38.8827 28.2249 36.811 24.5993 36.219 23.2305C35.5901 21.8986 34.7022 20.9367 33.9993 20.0118C33.2964 19.087 33.2224 18.31 33.2964 18.31C33.3704 18.273 34.1103 19.3829 34.5542 19.9379C34.9982 20.4928 35.9231 21.4917 36.367 21.9726C36.848 22.4536 37.1439 23.0455 37.4769 23.5264C37.8099 23.9704 39.9926 25.6722 40.6215 26.1901C41.2135 26.7081 41.8054 27.189 41.8794 27.337C41.9904 27.485 41.9904 27.596 41.9164 27.633C41.8424 27.67 41.9534 27.818 42.0644 27.8919C42.1384 27.9659 42.1384 28.0769 42.0274 28.1509C41.9164 28.2249 41.8794 28.5209 41.9534 28.5579C42.0274 28.5949 42.3233 28.2989 42.3973 28.2989C42.4343 28.2989 42.5823 28.5209 42.5823 28.6689C42.6193 28.8168 43.0633 29.0758 43.0633 29.1868C42.9893 29.2608 42.1014 29.5198 42.0274 29.5568ZM42.4343 32.6274H42.5453C42.5453 32.6274 42.8413 32.7754 42.9893 32.8124C43.1003 32.8494 43.3592 32.5164 43.3962 32.4054C43.4332 32.2944 43.3222 31.8135 43.3962 31.8135C43.4702 31.7765 43.9511 31.9615 44.0621 31.8875C44.1361 31.8505 44.2471 31.7395 44.3211 31.6655C44.6171 31.7025 45.024 31.7765 45.468 31.8875C45.616 31.9245 45.727 31.9615 45.8379 31.9985C45.8379 32.0355 45.8009 32.0355 45.8009 32.0725C45.061 33.3303 43.3962 33.7743 42.9893 33.8853L42.4343 32.6274ZM43.0263 33.9962C43.5072 33.8853 45.135 33.4413 45.9119 32.1465C45.9119 32.1095 45.9489 32.1095 45.9489 32.0725C46.0599 32.1465 46.1339 32.2204 46.1709 32.2944C46.2079 32.4794 45.9859 32.7014 45.542 32.9974C44.95 33.4043 43.4702 33.9592 43.1003 34.1072L43.0263 33.9962ZM43.1372 34.2182C43.5442 34.0702 44.987 33.5153 45.616 33.1083C46.1339 32.7384 46.3189 32.4794 46.2819 32.2574C46.2449 32.1465 46.1709 32.0355 46.0229 31.9615C46.1709 31.7025 46.2449 31.4805 46.3559 31.2956C46.4669 31.4065 46.5409 31.5545 46.5779 31.7025C46.6518 32.1095 46.5039 32.5904 46.0969 33.1453C45.9119 33.2563 45.7269 33.4043 45.542 33.5153C44.3951 34.0332 43.1742 34.2552 43.1372 34.2182L43.1742 34.3292L43.1372 34.2182ZM43.2112 34.3662C43.3592 34.3292 44.5061 34.1442 45.542 33.5893C45.579 33.5523 45.653 33.5153 45.69 33.5153C44.987 34.1072 43.8032 34.6252 43.3592 34.8102L43.2112 34.3662ZM45.098 36.7339L44.1361 36.401L43.4702 34.8841C44.0252 34.6622 45.616 33.9592 46.1709 33.1823C46.5039 32.9234 46.7998 32.6644 46.9848 32.3684C46.9108 32.5534 46.8368 32.7754 46.7628 33.0344C46.4299 33.8483 46.2449 35.1801 46.7628 36.475C47.0958 37.3629 47.2068 38.4727 47.2438 39.1017C46.9108 39.1387 46.4669 39.2496 46.2449 39.3236L45.098 36.7339ZM45.135 43.8001L47.3548 47.6847L43.3592 45.3539C43.8772 44.762 44.4691 44.2441 45.135 43.8001ZM43.2112 45.5389L47.6137 48.1286L48.2427 49.2385C48.0577 49.4975 47.8727 49.7564 47.7617 50.0524H46.5039L41.9904 47.4257C42.3233 46.7598 42.7303 46.1309 43.2112 45.5389ZM48.3906 49.0165L48.0207 48.3876L48.1687 48.4616C48.2797 48.6836 48.3537 48.8685 48.3906 49.0165C48.4276 49.0165 48.4276 49.0165 48.3906 49.0165ZM48.6496 54.0849L48.0207 54.4549L48.3906 53.826C48.4646 53.9 48.5386 54.011 48.6496 54.0849ZM47.6507 52.5311H46.9108L47.5397 52.1612C47.5767 52.2722 47.6137 52.4201 47.6507 52.5311ZM46.9108 50.3114H47.6507C47.6137 50.4224 47.5767 50.5704 47.5397 50.6813L46.9108 50.3114ZM41.8424 47.6477L45.9489 50.0524L41.0285 50.0154C41.2135 49.2015 41.5094 48.3876 41.8424 47.6477ZM40.8805 51.9392C40.8805 51.3843 40.9175 50.8293 41.0285 50.2744L46.4299 50.3114L47.5397 50.9403C47.5028 51.0883 47.5028 51.2363 47.5028 51.4213C47.5028 51.5692 47.5028 51.7542 47.5397 51.9022L46.4299 52.5311L40.9175 52.4941C40.8805 52.3092 40.8805 52.1242 40.8805 51.9392ZM40.8805 52.7531L45.9489 52.7901L41.4354 55.3798C41.1395 54.5289 40.9545 53.641 40.8805 52.7531ZM41.5464 55.6018L46.4669 52.7901H47.7247C47.8357 53.0861 48.0207 53.345 48.2057 53.604L47.5767 54.7139L42.5823 57.5625C42.1384 56.9336 41.8054 56.3047 41.5464 55.6018ZM42.6933 57.7845L47.2808 55.1578L44.5801 59.7823C43.8772 59.1904 43.2482 58.5244 42.6933 57.7845ZM49.6485 61.9281C48.6866 61.8171 47.7987 61.5581 46.9478 61.1881L49.6855 56.5267L49.6485 61.9281ZM49.6855 56.0087L46.7258 61.0771C46.0599 60.7812 45.394 60.3742 44.8391 59.9303L47.7987 54.8989L48.9086 54.2699C49.1676 54.4549 49.4265 54.6399 49.7225 54.7509L49.6855 56.0087ZM49.7225 47.4257L48.6866 45.021L49.7225 46.8708V47.4257ZM49.7225 46.3158L47.7247 42.8382L47.5767 42.5053C48.2797 42.2833 48.9826 42.0983 49.7225 42.0243V46.3158ZM52.1272 61.9281C51.7203 61.965 51.2763 62.002 50.8324 62.002C50.4994 62.002 50.2034 62.002 49.9075 61.965L49.9445 56.0827L50.5734 54.9728C50.7214 55.0098 50.8694 55.0098 51.0543 55.0098C51.2023 55.0098 51.3873 55.0098 51.5353 54.9728L52.1642 56.0827L52.1272 61.9281ZM52.1642 55.5648L51.7943 54.9358C51.9053 54.8989 52.0532 54.8619 52.1642 54.8249V55.5648ZM52.2012 48.0176C52.0902 47.9806 51.9422 47.9436 51.8312 47.9067L52.2012 47.2777V48.0176ZM52.2012 46.7968L51.5723 47.9067C51.4243 47.8697 51.2763 47.8697 51.0913 47.8697C50.9434 47.8697 50.7584 47.8697 50.6104 47.9067L49.9815 46.7968L50.0185 42.0243C50.3144 41.9873 50.6474 41.9873 50.9434 41.9873C51.3873 41.9873 51.7943 42.0243 52.2382 42.0613L52.2012 46.7968ZM52.3862 61.8911L52.4232 56.5267L55.0499 61.1141C54.199 61.4841 53.3111 61.7431 52.3862 61.8911ZM55.2349 61.0032L52.3862 56.0087V54.7509C52.6822 54.6399 52.9411 54.4549 53.2001 54.2699L54.31 54.8989L57.0847 59.7823C56.5297 60.3002 55.9008 60.6702 55.2349 61.0032ZM57.3436 59.6713L54.7909 55.1948L59.1194 57.7105C58.6015 58.4504 58.0096 59.0794 57.3436 59.6713ZM59.2304 57.4886L54.4949 54.7139L53.866 53.604C54.051 53.345 54.236 53.0861 54.347 52.7901H55.6048L60.2293 55.4908C60.0073 56.2307 59.6374 56.8966 59.2304 57.4886ZM60.3403 55.2688L56.1598 52.8271L60.8952 52.8641C60.7842 53.678 60.6362 54.4919 60.3403 55.2688ZM55.7158 52.5681L54.6059 51.9392C54.6429 51.7912 54.6429 51.6432 54.6429 51.4583C54.6429 51.3103 54.6429 51.1253 54.6059 50.9773L55.7158 50.3484L60.7842 50.3854C60.8582 50.9403 60.9322 51.4582 60.8952 52.0502C60.8952 52.2352 60.8952 52.4201 60.8582 52.6051L55.7158 52.5681Z" fill="#CFCDCD"/>
</svg>
