<svg width="12" height="12" viewBox="0 0 12 12" fill="none" xmlns="http://www.w3.org/2000/svg">
<path d="M11.6265 1.46013L10.539 0.372629C10.0422 -0.124221 9.23384 -0.124198 8.73699 0.372629C8.2692 0.840464 1.12415 7.98605 0.646661 8.46357C0.595802 8.51443 0.561723 8.58202 0.549583 8.64814L0.00588081 11.5844C-0.0151895 11.6982 0.0210917 11.8151 0.102959 11.897C0.18492 11.979 0.301872 12.0152 0.415568 11.9941L3.35155 11.4503C3.41941 11.4377 3.48611 11.4033 3.53612 11.3532L11.6265 3.2623C12.1245 2.7643 12.1245 1.9582 11.6265 1.46013ZM0.790332 11.2096L1.11923 9.43338L2.5664 10.8806L0.790332 11.2096ZM3.28755 10.6074L1.39242 8.71219L8.31139 1.79268L10.2065 3.68795L3.28755 10.6074ZM11.1293 2.76512L10.7037 3.19077L8.80854 1.2955L9.23414 0.869855C9.45682 0.647152 9.81914 0.647129 10.0419 0.869855L11.1293 1.95735C11.3525 2.18059 11.3525 2.54186 11.1293 2.76512Z" fill="black"/>
</svg>
