<svg width="18" height="19" viewBox="0 0 18 19" fill="none" xmlns="http://www.w3.org/2000/svg">
<path fill-rule="evenodd" clip-rule="evenodd" d="M13.1559 15.2303C11.7702 16.4003 10.0125 17.1 8.09998 17.1C3.62648 17.1 0 13.272 0 8.54998C0 3.82795 3.62648 0 8.09998 0C12.5735 0 16.2 3.82795 16.2 8.54998C16.2 10.5687 15.5371 12.4241 14.4287 13.8868L17.7364 17.3783C18.0879 17.7492 18.0879 18.3508 17.7364 18.7218C17.3849 19.0927 16.8151 19.0927 16.4636 18.7218L13.1559 15.2303ZM1.8 8.54998C1.8 4.87729 4.62059 1.89999 8.09998 1.89999C11.5794 1.89999 14.4 4.87729 14.4 8.54998C14.4 10.3418 13.7286 11.9681 12.6369 13.1639C12.6062 13.1888 12.5767 13.2161 12.5486 13.2458C12.5205 13.2754 12.4947 13.3066 12.4711 13.3389C11.3382 14.4913 9.79749 15.2 8.09998 15.2C4.62059 15.2 1.8 12.2227 1.8 8.54998Z" fill="#00BB91"/>
</svg>
