<svg width="17" height="17" viewBox="0 0 17 17" fill="none" xmlns="http://www.w3.org/2000/svg">
<g clip-path="url(#clip0)">
<path d="M11.1165 7.73627L7.36083 5.68131C7.14488 5.56315 6.88964 5.56756 6.67797 5.69298C6.46617 5.81853 6.33984 6.04032 6.33984 6.28649V10.3611C6.33984 10.6061 6.46539 10.8275 6.67576 10.9532C6.78562 11.0188 6.90741 11.0518 7.02945 11.0518C7.14125 11.0518 7.25331 11.0242 7.35642 10.9686L11.1122 8.94909C11.3352 8.82912 11.4744 8.59735 11.4754 8.34404C11.4763 8.09074 11.3388 7.85793 11.1165 7.73627ZM7.33606 9.84856V6.80321L10.143 8.33911L7.33606 9.84856Z" fill="#00BB91"/>
<path d="M16.8749 5.09759L16.8741 5.08981C16.8597 4.95297 16.7164 3.73587 16.1247 3.11681C15.4408 2.38868 14.6655 2.30022 14.2926 2.25781C14.2617 2.25431 14.2334 2.25107 14.2082 2.2477L14.1785 2.24458C11.931 2.08116 8.53693 2.05885 8.50295 2.05872L8.49997 2.05859L8.49698 2.05872C8.463 2.05885 5.0689 2.08116 2.80124 2.24458L2.77128 2.2477C2.74716 2.25094 2.72057 2.25392 2.69165 2.25729C2.32304 2.29984 1.556 2.38842 0.870152 3.14288C0.306609 3.75533 0.143707 4.94636 0.126976 5.08021L0.12503 5.09759C0.119972 5.15453 0 6.51002 0 7.87083V9.14292C0 10.5037 0.119972 11.8592 0.12503 11.9163L0.125938 11.9249C0.140335 12.0595 0.283522 13.2543 0.872487 13.8736C1.51554 14.5773 2.32862 14.6705 2.76596 14.7205C2.83509 14.7284 2.89463 14.7352 2.93522 14.7423L2.97452 14.7478C4.27216 14.8712 8.3407 14.9321 8.5132 14.9345L8.51838 14.9347L8.52357 14.9345C8.55755 14.9344 11.9515 14.9121 14.1989 14.7487L14.2287 14.7456C14.2571 14.7418 14.289 14.7384 14.324 14.7348C14.6905 14.6959 15.4534 14.6151 16.1298 13.8709C16.6933 13.2583 16.8564 12.0673 16.873 11.9335L16.8749 11.9162C16.88 11.8591 17.0001 10.5037 17.0001 9.14292V7.87083C16.9999 6.51002 16.88 5.15466 16.8749 5.09759ZM16.0037 9.14292C16.0037 10.4024 15.8937 11.6996 15.8834 11.8186C15.8411 12.1466 15.6692 12.9002 15.3946 13.1986C14.9713 13.6644 14.5364 13.7106 14.2189 13.7441C14.1805 13.7482 14.145 13.7521 14.1128 13.7561C11.9391 13.9133 8.67311 13.9374 8.52266 13.9383C8.35393 13.9358 4.34492 13.8745 3.08684 13.7576C3.02238 13.7471 2.95273 13.7391 2.87932 13.7308C2.50696 13.6881 1.99724 13.6298 1.60529 13.1986L1.59608 13.1888C1.3263 12.9077 1.15938 12.2031 1.11697 11.8225C1.10906 11.7325 0.99622 10.4201 0.99622 9.14292V7.87083C0.99622 6.61274 1.10595 5.31704 1.11658 5.19551C1.16703 4.80914 1.34213 4.10123 1.60529 3.81512C2.04159 3.33523 2.50164 3.28205 2.80591 3.2469C2.83496 3.24353 2.86207 3.24042 2.8871 3.23717C5.09251 3.0792 8.38194 3.05573 8.49997 3.05482C8.61799 3.0556 11.9063 3.0792 14.0921 3.23717C14.1189 3.24055 14.1482 3.24392 14.1798 3.24755C14.4927 3.28322 14.9657 3.33717 15.3998 3.8002L15.4039 3.80448C15.6736 4.08554 15.8406 4.80252 15.883 5.19071C15.8905 5.27567 16.0037 6.59095 16.0037 7.87083V9.14292Z" fill="#00BB91"/>
</g>
<defs>
<clipPath id="clip0">
<rect width="17" height="17" fill="white"/>
</clipPath>
</defs>
</svg>
